<?xml version="1.0" encoding="utf-8" standalone="no"?>
<!DOCTYPE svg PUBLIC "-//W3C//DTD SVG 1.1//EN"
  "http://www.w3.org/Graphics/SVG/1.1/DTD/svg11.dtd">
<svg xmlns:xlink="http://www.w3.org/1999/xlink" width="627.52pt" height="67.68pt" viewBox="0 0 627.52 67.68" xmlns="http://www.w3.org/2000/svg" version="1.1">

 <style type="text/css"><![CDATA[
  .math-text { fill: #24292f; }
  @media (prefers-color-scheme: dark) {
   .math-text { fill: #f0f6fc; }
  }
 ]]></style>
 <metadata>
  <rdf:RDF xmlns:dc="http://purl.org/dc/elements/1.1/" xmlns:cc="http://creativecommons.org/ns#" xmlns:rdf="http://www.w3.org/1999/02/22-rdf-syntax-ns#">
   <cc:Work>
    <dc:type rdf:resource="http://purl.org/dc/dcmitype/StillImage"/>
    <dc:date>2026-05-20T17:03:51.339052</dc:date>
    <dc:format>image/svg+xml</dc:format>
    <dc:creator>
     <cc:Agent>
      <dc:title>Matplotlib v3.10.9, https://matplotlib.org/</dc:title>
     </cc:Agent>
    </dc:creator>
   </cc:Work>
  </rdf:RDF>
 </metadata>
 <defs>
  <style type="text/css">*{stroke-linejoin: round; stroke-linecap: butt}</style>
 </defs>
 <g id="figure_1">
  <g id="patch_1">
   <path d="M 0 67.68 
L 627.52 67.68 
L 627.52 0 
L 0 0 
L 0 67.68 
z
" style="fill: none; opacity: 0"/>
  </g>
  <g id="axes_1">
   <g id="text_1">
    <g class="math-text" transform="translate(191.63 39.42) scale(0.18 -0.18)">
     <defs>
      <path id="STIXGeneral-Italic-4f" d="M 4474 2675 
Q 4474 1990 4106 1363 
Q 3738 736 3149 339 
Q 2477 -115 1779 -115 
Q 1146 -115 765 281 
Q 384 678 384 1382 
Q 384 1965 697 2582 
Q 1011 3200 1517 3642 
Q 2234 4262 3034 4262 
Q 3718 4269 4096 3840 
Q 4474 3411 4474 2675 
z
M 3802 3078 
Q 3802 3533 3581 3792 
Q 3360 4051 2976 4051 
Q 2342 4051 1786 3302 
Q 1446 2842 1251 2259 
Q 1056 1677 1056 1178 
Q 1056 653 1270 374 
Q 1485 96 1888 96 
Q 2477 96 2976 704 
Q 3354 1178 3578 1862 
Q 3802 2547 3802 3078 
z
" transform="scale(0.015625)"/>
      <path id="STIXGeneral-Italic-6c" d="M 1786 4339 
L 806 595 
Q 755 410 755 320 
Q 755 205 864 205 
Q 1037 205 1293 570 
L 1453 794 
L 1542 730 
Q 1254 275 1046 102 
Q 838 -70 576 -70 
Q 262 -70 262 288 
Q 262 397 288 480 
L 1165 3834 
Q 1184 3898 1184 3955 
Q 1184 4096 870 4096 
L 755 4096 
L 755 4198 
Q 1203 4250 1747 4371 
L 1786 4339 
z
" transform="scale(0.015625)"/>
      <path id="STIXGeneral-Regular-2c" d="M 531 -902 
L 467 -781 
Q 998 -422 998 -96 
Q 998 -13 909 -13 
Q 883 -13 822 -25 
Q 762 -38 723 -38 
Q 352 -38 352 288 
Q 352 454 457 553 
Q 563 653 736 653 
Q 954 653 1101 496 
Q 1248 339 1248 96 
Q 1248 -198 1053 -473 
Q 858 -749 531 -902 
z
" transform="scale(0.015625)"/>
      <path id="STIXGeneral-Italic-71" d="M 3098 2739 
L 2042 -966 
Q 2029 -1018 2029 -1037 
Q 2029 -1235 2394 -1235 
L 2490 -1235 
L 2490 -1338 
L 973 -1338 
L 973 -1235 
Q 1267 -1216 1382 -1139 
Q 1498 -1062 1555 -877 
L 2131 979 
Q 1754 378 1466 154 
Q 1178 -70 800 -70 
Q 499 -70 329 128 
Q 160 326 160 672 
Q 160 1165 445 1670 
Q 730 2176 1168 2499 
Q 1606 2822 2035 2822 
Q 2438 2822 2528 2426 
L 2630 2739 
L 3098 2739 
z
M 2432 2298 
Q 2432 2458 2323 2570 
Q 2214 2682 2054 2682 
Q 1792 2682 1459 2368 
Q 1133 2054 921 1606 
Q 710 1158 710 762 
Q 710 269 1050 269 
Q 1312 269 1574 499 
Q 1901 781 2166 1341 
Q 2432 1901 2432 2298 
z
" transform="scale(0.015625)"/>
      <path id="STIXGeneral-Italic-62" d="M 1043 1856 
L 1050 1856 
Q 1370 2387 1654 2604 
Q 1939 2822 2285 2822 
Q 2618 2822 2822 2617 
Q 3027 2413 3027 2054 
Q 3027 1562 2726 1062 
Q 2426 563 1942 246 
Q 1459 -70 979 -70 
Q 685 -70 416 32 
Q 147 134 147 269 
L 147 307 
L 1056 3654 
Q 1114 3885 1114 3955 
Q 1114 4058 1053 4080 
Q 992 4102 704 4115 
L 704 4224 
Q 1184 4282 1683 4371 
L 1715 4339 
L 1581 3814 
L 1043 1856 
z
M 2483 1958 
Q 2483 2509 2035 2509 
Q 1594 2509 1158 1773 
Q 954 1427 826 1008 
Q 698 589 698 294 
Q 698 77 992 77 
Q 1414 77 1779 454 
Q 2074 762 2278 1187 
Q 2483 1613 2483 1958 
z
" transform="scale(0.015625)"/>
      <path id="STIXGeneral-Regular-3d" d="M 4077 2048 
L 307 2048 
L 307 2470 
L 4077 2470 
L 4077 2048 
z
M 4077 768 
L 307 768 
L 307 1190 
L 4077 1190 
L 4077 768 
z
" transform="scale(0.015625)"/>
      <path id="STIXGeneral-Regular-28" d="M 1946 -1030 
L 1869 -1133 
Q 1126 -710 716 32 
Q 307 774 307 1613 
Q 307 3386 1888 4326 
L 1946 4224 
Q 1293 3667 1075 3126 
Q 858 2586 858 1632 
Q 858 685 1082 96 
Q 1306 -493 1946 -1030 
z
" transform="scale(0.015625)"/>
      <path id="STIXGeneral-Regular-2b" d="M 4070 1408 
L 2400 1408 
L 2400 -262 
L 1978 -262 
L 1978 1408 
L 307 1408 
L 307 1830 
L 1978 1830 
L 1978 3501 
L 2400 3501 
L 2400 1830 
L 4070 1830 
L 4070 1408 
z
" transform="scale(0.015625)"/>
      <path id="STIXGeneral-Regular-31" d="M 2522 0 
L 755 0 
L 755 96 
Q 1107 115 1235 227 
Q 1363 339 1363 608 
L 1363 3482 
Q 1363 3795 1171 3795 
Q 1082 3795 883 3718 
L 710 3654 
L 710 3744 
L 1856 4326 
L 1914 4307 
L 1914 486 
Q 1914 275 2042 185 
Q 2170 96 2522 96 
L 2522 0 
z
" transform="scale(0.015625)"/>
      <path id="STIXGeneral-Regular-29" d="M 186 4224 
L 262 4326 
Q 992 3891 1408 3148 
Q 1824 2406 1824 1581 
Q 1824 -166 243 -1133 
L 186 -1030 
Q 845 -486 1059 54 
Q 1274 595 1274 1562 
Q 1274 2534 1059 3120 
Q 845 3706 186 4224 
z
" transform="scale(0.015625)"/>
      <path id="STIXGeneral-Italic-6d" d="M 4506 672 
L 4474 627 
Q 3981 -58 3552 -58 
Q 3296 -58 3296 237 
Q 3296 333 3379 659 
L 3750 2112 
Q 3795 2291 3795 2355 
Q 3795 2413 3756 2451 
Q 3718 2490 3667 2490 
Q 3366 2490 2829 1741 
Q 2592 1408 2457 1072 
Q 2323 736 2138 0 
L 1658 0 
L 1830 595 
Q 2266 2099 2266 2330 
Q 2266 2490 2125 2490 
Q 1965 2490 1702 2237 
Q 1440 1984 1171 1574 
Q 1011 1325 899 1043 
Q 787 762 557 0 
L 77 0 
L 352 922 
Q 704 2093 704 2381 
Q 704 2522 442 2522 
L 282 2522 
L 282 2624 
L 1318 2822 
L 1338 2810 
L 966 1472 
Q 1798 2822 2374 2822 
Q 2560 2822 2659 2720 
Q 2758 2618 2758 2438 
Q 2758 2195 2502 1466 
Q 2842 2003 3069 2275 
Q 3296 2547 3526 2694 
Q 3731 2822 3930 2822 
Q 4102 2822 4201 2710 
Q 4301 2598 4301 2419 
Q 4301 2336 4282 2240 
L 3846 634 
Q 3782 390 3782 346 
Q 3782 243 3859 243 
Q 4000 243 4275 582 
L 4410 749 
L 4506 672 
z
" transform="scale(0.015625)"/>
      <path id="STIXGeneral-Regular-2212" d="M 3974 1408 
L 410 1408 
L 410 1830 
L 3974 1830 
L 3974 1408 
z
" transform="scale(0.015625)"/>
      <path id="STIXGeneral-Regular-2211" d="M 5478 256 
L 5139 -1658 
L 371 -1658 
L 2880 1606 
L 531 4883 
L 5312 4883 
L 5312 3277 
L 5120 3277 
Q 5018 3949 4765 4205 
Q 4512 4461 3891 4461 
L 1843 4461 
L 3699 1958 
L 1549 -819 
L 4198 -819 
Q 4698 -819 4934 -550 
Q 5171 -282 5286 256 
L 5478 256 
z
" transform="scale(0.015625)"/>
      <path id="STIXGeneral-Italic-74" d="M 1894 2739 
L 1862 2534 
L 1325 2534 
L 768 435 
Q 755 384 755 346 
Q 755 243 851 243 
Q 928 243 1030 342 
Q 1133 442 1370 749 
L 1453 704 
Q 1158 256 969 93 
Q 781 -70 538 -70 
Q 243 -70 243 166 
Q 243 230 346 640 
L 845 2534 
L 365 2534 
L 358 2573 
Q 358 2688 570 2733 
Q 730 2771 992 2979 
Q 1254 3187 1421 3437 
Q 1459 3494 1510 3494 
Q 1568 3494 1568 3443 
Q 1568 3411 1562 3398 
L 1382 2739 
L 1894 2739 
z
" transform="scale(0.015625)"/>
      <path id="STIXGeneral-Regular-304" d="M -474 3501 
L -2464 3501 
L -2464 3846 
L -474 3846 
L -474 3501 
z
" transform="scale(0.015625)"/>
      <path id="STIXGeneral-Italic-41" d="M 3610 0 
L 2042 0 
L 2042 102 
Q 2330 115 2432 192 
Q 2534 269 2534 442 
Q 2534 493 2522 608 
L 2394 1446 
L 986 1446 
L 608 736 
Q 467 474 467 314 
Q 467 122 864 102 
L 864 0 
L -326 0 
L -326 102 
Q -109 147 28 307 
Q 166 467 531 1101 
L 2355 4275 
L 2522 4275 
L 3110 736 
Q 3174 339 3264 230 
Q 3354 122 3610 102 
L 3610 0 
z
M 2362 1677 
L 2074 3360 
L 1120 1677 
L 2362 1677 
z
" transform="scale(0.015625)"/>
      <path id="STIXGeneral-Regular-2264" d="M 4026 326 
L 410 2074 
L 410 2138 
L 4026 3898 
L 4026 3482 
L 1261 2106 
L 4026 730 
L 4026 326 
z
M 4026 -659 
L 410 -659 
L 410 -237 
L 4026 -237 
L 4026 -659 
z
" transform="scale(0.015625)"/>
      <path id="STIXGeneral-Regular-230a" d="M 2861 -1363 
L 1203 -1363 
L 1203 4563 
L 1626 4563 
L 1626 -544 
Q 1626 -864 1744 -1008 
Q 1862 -1152 2163 -1152 
L 2861 -1152 
L 2861 -1363 
z
" transform="scale(0.015625)"/>
      <path id="STIXGeneral-Regular-2f" d="M 1837 4326 
L 378 -90 
L -58 -90 
L 1408 4326 
L 1837 4326 
z
" transform="scale(0.015625)"/>
      <path id="STIXGeneral-Regular-230b" d="M 1830 -1363 
L 173 -1363 
L 173 -1152 
L 870 -1152 
Q 1171 -1152 1289 -1008 
Q 1408 -864 1408 -544 
L 1408 4563 
L 1830 4563 
L 1830 -1363 
z
" transform="scale(0.015625)"/>
     </defs>
     <use xlink:href="#STIXGeneral-Italic-4f" transform="translate(0 0.753125)"/>
     <use xlink:href="#STIXGeneral-Italic-6c" transform="translate(72.199982 -12.475) scale(0.7)"/>
     <use xlink:href="#STIXGeneral-Regular-2c" transform="translate(91.659973 -12.475) scale(0.7)"/>
     <use xlink:href="#STIXGeneral-Italic-71" transform="translate(119.26796 -12.475) scale(0.7)"/>
     <use xlink:href="#STIXGeneral-Regular-2c" transform="translate(154.267949 -12.475) scale(0.7)"/>
     <use xlink:href="#STIXGeneral-Italic-62" transform="translate(181.875936 -12.475) scale(0.7)"/>
     <use xlink:href="#STIXGeneral-Regular-3d" transform="translate(235.725297 0.753125)"/>
     <use xlink:href="#STIXGeneral-Regular-28" transform="translate(318.665278 108.192188) scale(0.7)"/>
     <use xlink:href="#STIXGeneral-Italic-62" transform="translate(341.975269 108.192188) scale(0.7)"/>
     <use xlink:href="#STIXGeneral-Regular-2b" transform="translate(387.083256 108.192188) scale(0.7)"/>
     <use xlink:href="#STIXGeneral-Regular-31" transform="translate(445.141243 108.192188) scale(0.7)"/>
     <use xlink:href="#STIXGeneral-Regular-29" transform="translate(480.141232 108.192188) scale(0.7)"/>
     <use xlink:href="#STIXGeneral-Italic-6d" transform="translate(503.451223 108.192188) scale(0.7)"/>
     <use xlink:href="#STIXGeneral-Regular-2212" transform="translate(564.099208 108.192188) scale(0.7)"/>
     <use xlink:href="#STIXGeneral-Regular-31" transform="translate(622.157195 108.192188) scale(0.7)"/>
     <use xlink:href="#STIXGeneral-Regular-2211" transform="translate(447.665278 0.753125)"/>
     <use xlink:href="#STIXGeneral-Italic-74" transform="translate(401.665278 -91.710938) scale(0.7)"/>
     <use xlink:href="#STIXGeneral-Regular-3d" transform="translate(431.233267 -91.710938) scale(0.7)"/>
     <use xlink:href="#STIXGeneral-Italic-62" transform="translate(489.291253 -91.710938) scale(0.7)"/>
     <use xlink:href="#STIXGeneral-Italic-6d" transform="translate(524.291243 -91.710938) scale(0.7)"/>
     <use xlink:href="#STIXGeneral-Regular-304" transform="translate(717.932182 25.346875)"/>
     <use xlink:href="#STIXGeneral-Italic-41" transform="translate(657.157184 0.753125)"/>
     <use xlink:href="#STIXGeneral-Italic-6c" transform="translate(719.800456 -12.475) scale(0.7)"/>
     <use xlink:href="#STIXGeneral-Regular-2c" transform="translate(739.260448 -12.475) scale(0.7)"/>
     <use xlink:href="#STIXGeneral-Italic-71" transform="translate(766.868434 -12.475) scale(0.7)"/>
     <use xlink:href="#STIXGeneral-Regular-2c" transform="translate(801.868424 -12.475) scale(0.7)"/>
     <use xlink:href="#STIXGeneral-Italic-74" transform="translate(829.476411 -12.475) scale(0.7)"/>
     <use xlink:href="#STIXGeneral-Regular-2c" transform="translate(853.345777 0.753125)"/>
     <use xlink:href="#STIXGeneral-Italic-62" transform="translate(964.98574 0.753125)"/>
     <use xlink:href="#STIXGeneral-Regular-2264" transform="translate(1029.425721 0.753125)"/>
     <use xlink:href="#STIXGeneral-Regular-230a" transform="translate(1112.365702 0.753125)"/>
     <use xlink:href="#STIXGeneral-Italic-71" transform="translate(1159.265696 0.753125)"/>
     <use xlink:href="#STIXGeneral-Regular-2f" transform="translate(1209.265681 0.753125)"/>
     <use xlink:href="#STIXGeneral-Italic-6d" transform="translate(1237.065668 0.753125)"/>
     <use xlink:href="#STIXGeneral-Regular-230b" transform="translate(1309.26565 0.753125)"/>
    </g>
   </g>
  </g>
 </g>
</svg>
