<?xml version="1.0" encoding="utf-8" standalone="no"?>
<!DOCTYPE svg PUBLIC "-//W3C//DTD SVG 1.1//EN"
  "http://www.w3.org/Graphics/SVG/1.1/DTD/svg11.dtd">
<svg xmlns:xlink="http://www.w3.org/1999/xlink" width="611.52pt" height="67.68pt" viewBox="0 0 611.52 67.68" xmlns="http://www.w3.org/2000/svg" version="1.1">

 <style type="text/css"><![CDATA[
  .math-text { fill: #24292f; }
  @media (prefers-color-scheme: dark) {
   .math-text { fill: #f0f6fc; }
  }
 ]]></style>
 <metadata>
  <rdf:RDF xmlns:dc="http://purl.org/dc/elements/1.1/" xmlns:cc="http://creativecommons.org/ns#" xmlns:rdf="http://www.w3.org/1999/02/22-rdf-syntax-ns#">
   <cc:Work>
    <dc:type rdf:resource="http://purl.org/dc/dcmitype/StillImage"/>
    <dc:date>2026-05-20T17:03:51.366227</dc:date>
    <dc:format>image/svg+xml</dc:format>
    <dc:creator>
     <cc:Agent>
      <dc:title>Matplotlib v3.10.9, https://matplotlib.org/</dc:title>
     </cc:Agent>
    </dc:creator>
   </cc:Work>
  </rdf:RDF>
 </metadata>
 <defs>
  <style type="text/css">*{stroke-linejoin: round; stroke-linecap: butt}</style>
 </defs>
 <g id="figure_1">
  <g id="patch_1">
   <path d="M 0 67.68 
L 611.52 67.68 
L 611.52 0 
L 0 0 
L 0 67.68 
z
" style="fill: none; opacity: 0"/>
  </g>
  <g id="axes_1">
   <g id="text_1">
    <g class="math-text" transform="translate(113.7 32.31) scale(0.18 -0.18)">
     <defs>
      <path id="STIXGeneral-Italic-4d" d="M 5581 4179 
L 5581 4077 
Q 5318 4032 5225 3945 
Q 5133 3859 5062 3603 
L 4275 768 
Q 4186 448 4186 371 
Q 4186 243 4301 176 
Q 4416 109 4704 102 
L 4698 0 
L 2963 0 
L 2963 102 
Q 3277 134 3405 243 
Q 3533 352 3616 653 
L 4422 3590 
L 2016 0 
L 1907 0 
L 1510 3494 
L 755 755 
Q 698 550 698 410 
Q 698 134 1146 102 
L 1146 0 
L -115 0 
L -115 102 
Q 141 134 259 284 
Q 378 435 525 960 
L 1254 3526 
Q 1331 3789 1331 3859 
Q 1331 4051 858 4077 
L 858 4179 
L 2016 4179 
L 2374 1030 
L 4518 4179 
L 5581 4179 
z
" transform="scale(0.015625)"/>
      <path id="STIXGeneral-Italic-71" d="M 3098 2739 
L 2042 -966 
Q 2029 -1018 2029 -1037 
Q 2029 -1235 2394 -1235 
L 2490 -1235 
L 2490 -1338 
L 973 -1338 
L 973 -1235 
Q 1267 -1216 1382 -1139 
Q 1498 -1062 1555 -877 
L 2131 979 
Q 1754 378 1466 154 
Q 1178 -70 800 -70 
Q 499 -70 329 128 
Q 160 326 160 672 
Q 160 1165 445 1670 
Q 730 2176 1168 2499 
Q 1606 2822 2035 2822 
Q 2438 2822 2528 2426 
L 2630 2739 
L 3098 2739 
z
M 2432 2298 
Q 2432 2458 2323 2570 
Q 2214 2682 2054 2682 
Q 1792 2682 1459 2368 
Q 1133 2054 921 1606 
Q 710 1158 710 762 
Q 710 269 1050 269 
Q 1312 269 1574 499 
Q 1901 781 2166 1341 
Q 2432 1901 2432 2298 
z
" transform="scale(0.015625)"/>
      <path id="STIXGeneral-Regular-2c" d="M 531 -902 
L 467 -781 
Q 998 -422 998 -96 
Q 998 -13 909 -13 
Q 883 -13 822 -25 
Q 762 -38 723 -38 
Q 352 -38 352 288 
Q 352 454 457 553 
Q 563 653 736 653 
Q 954 653 1101 496 
Q 1248 339 1248 96 
Q 1248 -198 1053 -473 
Q 858 -749 531 -902 
z
" transform="scale(0.015625)"/>
      <path id="STIXGeneral-Italic-62" d="M 1043 1856 
L 1050 1856 
Q 1370 2387 1654 2604 
Q 1939 2822 2285 2822 
Q 2618 2822 2822 2617 
Q 3027 2413 3027 2054 
Q 3027 1562 2726 1062 
Q 2426 563 1942 246 
Q 1459 -70 979 -70 
Q 685 -70 416 32 
Q 147 134 147 269 
L 147 307 
L 1056 3654 
Q 1114 3885 1114 3955 
Q 1114 4058 1053 4080 
Q 992 4102 704 4115 
L 704 4224 
Q 1184 4282 1683 4371 
L 1715 4339 
L 1581 3814 
L 1043 1856 
z
M 2483 1958 
Q 2483 2509 2035 2509 
Q 1594 2509 1158 1773 
Q 954 1427 826 1008 
Q 698 589 698 294 
Q 698 77 992 77 
Q 1414 77 1779 454 
Q 2074 762 2278 1187 
Q 2483 1613 2483 1958 
z
" transform="scale(0.015625)"/>
      <path id="STIXGeneral-Regular-3d" d="M 4077 2048 
L 307 2048 
L 307 2470 
L 4077 2470 
L 4077 2048 
z
M 4077 768 
L 307 768 
L 307 1190 
L 4077 1190 
L 4077 768 
z
" transform="scale(0.015625)"/>
      <path id="STIXGeneral-Bold-31" d="M 2822 0 
L 435 0 
L 435 154 
Q 909 160 1049 285 
Q 1190 410 1190 826 
L 1190 3245 
Q 1190 3693 960 3693 
Q 806 3693 544 3590 
L 416 3539 
L 416 3706 
L 2022 4403 
L 2138 4403 
L 2138 755 
Q 2138 390 2262 275 
Q 2387 160 2822 154 
L 2822 0 
z
" transform="scale(0.015625)"/>
      <path id="STIXGeneral-Regular-7b" d="M 2240 -1088 
L 2240 -1158 
Q 1702 -1152 1466 -998 
Q 1184 -819 1184 -262 
L 1184 870 
Q 1184 1203 1072 1350 
Q 960 1498 640 1600 
Q 960 1696 1072 1843 
Q 1184 1990 1184 2323 
L 1184 3462 
Q 1184 4019 1466 4192 
Q 1709 4346 2240 4352 
L 2240 4282 
Q 1907 4198 1782 4025 
Q 1658 3853 1658 3494 
L 1658 2419 
Q 1658 2022 1536 1856 
Q 1414 1690 1056 1594 
Q 1414 1504 1536 1337 
Q 1658 1171 1658 774 
L 1658 -301 
Q 1658 -659 1782 -832 
Q 1907 -1005 2240 -1088 
z
" transform="scale(0.015625)"/>
      <path id="STIXGeneral-Italic-6d" d="M 4506 672 
L 4474 627 
Q 3981 -58 3552 -58 
Q 3296 -58 3296 237 
Q 3296 333 3379 659 
L 3750 2112 
Q 3795 2291 3795 2355 
Q 3795 2413 3756 2451 
Q 3718 2490 3667 2490 
Q 3366 2490 2829 1741 
Q 2592 1408 2457 1072 
Q 2323 736 2138 0 
L 1658 0 
L 1830 595 
Q 2266 2099 2266 2330 
Q 2266 2490 2125 2490 
Q 1965 2490 1702 2237 
Q 1440 1984 1171 1574 
Q 1011 1325 899 1043 
Q 787 762 557 0 
L 77 0 
L 352 922 
Q 704 2093 704 2381 
Q 704 2522 442 2522 
L 282 2522 
L 282 2624 
L 1318 2822 
L 1338 2810 
L 966 1472 
Q 1798 2822 2374 2822 
Q 2560 2822 2659 2720 
Q 2758 2618 2758 2438 
Q 2758 2195 2502 1466 
Q 2842 2003 3069 2275 
Q 3296 2547 3526 2694 
Q 3731 2822 3930 2822 
Q 4102 2822 4201 2710 
Q 4301 2598 4301 2419 
Q 4301 2336 4282 2240 
L 3846 634 
Q 3782 390 3782 346 
Q 3782 243 3859 243 
Q 4000 243 4275 582 
L 4410 749 
L 4506 672 
z
" transform="scale(0.015625)"/>
      <path id="STIXGeneral-Regular-28" d="M 1946 -1030 
L 1869 -1133 
Q 1126 -710 716 32 
Q 307 774 307 1613 
Q 307 3386 1888 4326 
L 1946 4224 
Q 1293 3667 1075 3126 
Q 858 2586 858 1632 
Q 858 685 1082 96 
Q 1306 -493 1946 -1030 
z
" transform="scale(0.015625)"/>
      <path id="STIXGeneral-Regular-2b" d="M 4070 1408 
L 2400 1408 
L 2400 -262 
L 1978 -262 
L 1978 1408 
L 307 1408 
L 307 1830 
L 1978 1830 
L 1978 3501 
L 2400 3501 
L 2400 1830 
L 4070 1830 
L 4070 1408 
z
" transform="scale(0.015625)"/>
      <path id="STIXGeneral-Regular-31" d="M 2522 0 
L 755 0 
L 755 96 
Q 1107 115 1235 227 
Q 1363 339 1363 608 
L 1363 3482 
Q 1363 3795 1171 3795 
Q 1082 3795 883 3718 
L 710 3654 
L 710 3744 
L 1856 4326 
L 1914 4307 
L 1914 486 
Q 1914 275 2042 185 
Q 2170 96 2522 96 
L 2522 0 
z
" transform="scale(0.015625)"/>
      <path id="STIXGeneral-Regular-29" d="M 186 4224 
L 262 4326 
Q 992 3891 1408 3148 
Q 1824 2406 1824 1581 
Q 1824 -166 243 -1133 
L 186 -1030 
Q 845 -486 1059 54 
Q 1274 595 1274 1562 
Q 1274 2534 1059 3120 
Q 845 3706 186 4224 
z
" transform="scale(0.015625)"/>
      <path id="STIXGeneral-Regular-2212" d="M 3974 1408 
L 410 1408 
L 410 1830 
L 3974 1830 
L 3974 1408 
z
" transform="scale(0.015625)"/>
      <path id="STIXGeneral-Regular-2264" d="M 4026 326 
L 410 2074 
L 410 2138 
L 4026 3898 
L 4026 3482 
L 1261 2106 
L 4026 730 
L 4026 326 
z
M 4026 -659 
L 410 -659 
L 410 -237 
L 4026 -237 
L 4026 -659 
z
" transform="scale(0.015625)"/>
      <path id="STIXGeneral-Regular-7d" d="M 1888 3456 
L 1888 2323 
Q 1888 1990 2000 1843 
Q 2112 1696 2432 1600 
Q 2112 1498 2000 1350 
Q 1888 1203 1888 870 
L 1888 -269 
Q 1888 -826 1606 -998 
Q 1363 -1152 832 -1158 
L 832 -1088 
Q 1165 -1005 1289 -832 
Q 1414 -659 1414 -301 
L 1414 774 
Q 1414 1171 1536 1337 
Q 1658 1504 2016 1600 
Q 1658 1690 1536 1853 
Q 1414 2016 1414 2419 
L 1414 3494 
Q 1414 3853 1289 4025 
Q 1165 4198 832 4282 
L 832 4352 
Q 1370 4346 1606 4192 
Q 1888 4013 1888 3456 
z
" transform="scale(0.015625)"/>
      <path id="STIXGeneral-Italic-51" d="M 442 -1082 
L 378 -979 
Q 749 -717 912 -589 
Q 1075 -461 1510 -77 
Q 966 32 675 425 
Q 384 819 384 1440 
Q 384 2035 678 2624 
Q 973 3213 1491 3661 
Q 2202 4262 3034 4262 
Q 3680 4262 4077 3833 
Q 4474 3405 4474 2746 
Q 4474 1997 4019 1277 
Q 3565 557 2835 173 
Q 2400 -64 1786 -102 
L 1440 -467 
L 1600 -467 
Q 1824 -467 2387 -595 
Q 2938 -730 3098 -730 
Q 3443 -730 3673 -624 
Q 3904 -518 4173 -237 
L 4275 -307 
Q 4122 -525 3942 -685 
Q 3411 -1165 2720 -1165 
Q 2298 -1165 1773 -998 
Q 1421 -883 1178 -883 
Q 800 -883 442 -1082 
z
M 3802 3072 
Q 3802 3526 3581 3788 
Q 3360 4051 2976 4051 
Q 2272 4051 1734 3251 
Q 1446 2822 1251 2230 
Q 1056 1638 1056 1171 
Q 1056 691 1273 400 
Q 1491 109 1850 109 
Q 2579 109 3117 902 
Q 3411 1350 3606 1964 
Q 3802 2579 3802 3072 
z
" transform="scale(0.015625)"/>
      <path id="STIXGeneral-Italic-6b" d="M 2950 2739 
L 2950 2637 
Q 2720 2624 2464 2448 
Q 2208 2272 1510 1651 
L 1747 1088 
Q 2099 262 2266 262 
Q 2400 262 2554 531 
Q 2586 582 2650 698 
L 2746 627 
Q 2522 224 2374 77 
Q 2227 -70 2035 -70 
Q 1894 -70 1782 42 
Q 1670 154 1517 454 
Q 1325 826 1133 1357 
L 877 1152 
L 570 0 
L 90 0 
L 992 3379 
Q 1082 3699 1107 3942 
Q 1088 4096 781 4096 
L 666 4096 
L 666 4198 
Q 1146 4256 1670 4371 
L 1709 4333 
L 941 1414 
L 1216 1626 
Q 2131 2330 2131 2522 
Q 2131 2637 1894 2637 
L 1805 2637 
L 1805 2739 
L 2950 2739 
z
" transform="scale(0.015625)"/>
      <path id="STIXGeneral-Regular-3a" d="M 1123 2832 
Q 1229 2726 1229 2579 
Q 1229 2432 1126 2329 
Q 1024 2227 877 2227 
Q 730 2227 624 2332 
Q 518 2438 518 2579 
Q 518 2733 620 2835 
Q 723 2938 877 2938 
Q 1018 2938 1123 2832 
z
M 1229 282 
Q 1229 141 1126 35 
Q 1024 -70 877 -70 
Q 730 -70 624 35 
Q 518 141 518 282 
Q 518 435 620 537 
Q 723 640 877 640 
Q 1018 640 1123 534 
Q 1229 429 1229 282 
z
" transform="scale(0.015625)"/>
      <path id="STIXGeneral-Regular-2211" d="M 5478 256 
L 5139 -1658 
L 371 -1658 
L 2880 1606 
L 531 4883 
L 5312 4883 
L 5312 3277 
L 5120 3277 
Q 5018 3949 4765 4205 
Q 4512 4461 3891 4461 
L 1843 4461 
L 3699 1958 
L 1549 -819 
L 4198 -819 
Q 4698 -819 4934 -550 
Q 5171 -282 5286 256 
L 5478 256 
z
" transform="scale(0.015625)"/>
      <path id="STIXGeneral-Regular-2265" d="M 4026 2074 
L 410 326 
L 410 730 
L 3174 2106 
L 410 3482 
L 410 3898 
L 4026 2138 
L 4026 2074 
z
M 4026 -659 
L 410 -659 
L 410 -237 
L 4026 -237 
L 4026 -659 
z
" transform="scale(0.015625)"/>
     </defs>
     <use xlink:href="#STIXGeneral-Italic-4d" transform="translate(0 0.703125)"/>
     <use xlink:href="#STIXGeneral-Italic-71" transform="translate(83.299988 -12.525) scale(0.7)"/>
     <use xlink:href="#STIXGeneral-Regular-2c" transform="translate(118.299977 -12.525) scale(0.7)"/>
     <use xlink:href="#STIXGeneral-Italic-62" transform="translate(145.907964 -12.525) scale(0.7)"/>
     <use xlink:href="#STIXGeneral-Regular-3d" transform="translate(199.757325 0.703125)"/>
     <use xlink:href="#STIXGeneral-Bold-31" transform="translate(282.697306 0.703125)"/>
     <use xlink:href="#STIXGeneral-Regular-7b" transform="translate(332.69729 0.703125)"/>
     <use xlink:href="#STIXGeneral-Italic-6d" transform="translate(380.697275 0.703125)"/>
     <use xlink:href="#STIXGeneral-Regular-28" transform="translate(452.897257 0.703125)"/>
     <use xlink:href="#STIXGeneral-Italic-62" transform="translate(486.197245 0.703125)"/>
     <use xlink:href="#STIXGeneral-Regular-2b" transform="translate(550.637226 0.703125)"/>
     <use xlink:href="#STIXGeneral-Regular-31" transform="translate(633.577207 0.703125)"/>
     <use xlink:href="#STIXGeneral-Regular-29" transform="translate(683.577191 0.703125)"/>
     <use xlink:href="#STIXGeneral-Regular-2212" transform="translate(731.317176 0.703125)"/>
     <use xlink:href="#STIXGeneral-Regular-31" transform="translate(814.257157 0.703125)"/>
     <use xlink:href="#STIXGeneral-Regular-2264" transform="translate(878.697138 0.703125)"/>
     <use xlink:href="#STIXGeneral-Italic-71" transform="translate(961.637119 0.703125)"/>
     <use xlink:href="#STIXGeneral-Regular-7d" transform="translate(1011.637104 0.703125)"/>
     <use xlink:href="#STIXGeneral-Regular-2c" transform="translate(1059.637088 0.703125)"/>
     <use xlink:href="#STIXGeneral-Italic-51" transform="translate(1171.277051 0.703125)"/>
     <use xlink:href="#STIXGeneral-Italic-6b" transform="translate(1243.477033 -12.525) scale(0.7)"/>
     <use xlink:href="#STIXGeneral-Regular-3d" transform="translate(1293.4064 0.703125)"/>
     <use xlink:href="#STIXGeneral-Regular-7b" transform="translate(1376.346381 0.703125)"/>
     <use xlink:href="#STIXGeneral-Italic-71" transform="translate(1424.346366 0.703125)"/>
     <use xlink:href="#STIXGeneral-Regular-3a" transform="translate(1488.786347 0.703125)"/>
     <use xlink:href="#STIXGeneral-Regular-2211" transform="translate(1531.026331 0.703125)"/>
     <use xlink:href="#STIXGeneral-Italic-62" transform="translate(1555.026331 -91.760938) scale(0.7)"/>
     <use xlink:href="#STIXGeneral-Italic-4d" transform="translate(1610.823206 0.703125)"/>
     <use xlink:href="#STIXGeneral-Italic-71" transform="translate(1694.123194 -12.525) scale(0.7)"/>
     <use xlink:href="#STIXGeneral-Regular-2c" transform="translate(1729.123183 -12.525) scale(0.7)"/>
     <use xlink:href="#STIXGeneral-Italic-62" transform="translate(1756.73117 -12.525) scale(0.7)"/>
     <use xlink:href="#STIXGeneral-Regular-2265" transform="translate(1810.58053 0.703125)"/>
     <use xlink:href="#STIXGeneral-Italic-6b" transform="translate(1893.520511 0.703125)"/>
     <use xlink:href="#STIXGeneral-Regular-2b" transform="translate(1952.360502 0.703125)"/>
     <use xlink:href="#STIXGeneral-Regular-31" transform="translate(2035.300483 0.703125)"/>
     <use xlink:href="#STIXGeneral-Regular-7d" transform="translate(2085.300468 0.703125)"/>
    </g>
   </g>
  </g>
 </g>
</svg>
