<?xml version="1.0" encoding="utf-8" standalone="no"?>
<!DOCTYPE svg PUBLIC "-//W3C//DTD SVG 1.1//EN"
  "http://www.w3.org/Graphics/SVG/1.1/DTD/svg11.dtd">
<svg xmlns:xlink="http://www.w3.org/1999/xlink" width="947.52pt" height="67.68pt" viewBox="0 0 947.52 67.68" xmlns="http://www.w3.org/2000/svg" version="1.1">

 <style type="text/css"><![CDATA[
  .math-text { fill: #24292f; }
  @media (prefers-color-scheme: dark) {
   .math-text { fill: #f0f6fc; }
  }
 ]]></style>
 <metadata>
  <rdf:RDF xmlns:dc="http://purl.org/dc/elements/1.1/" xmlns:cc="http://creativecommons.org/ns#" xmlns:rdf="http://www.w3.org/1999/02/22-rdf-syntax-ns#">
   <cc:Work>
    <dc:type rdf:resource="http://purl.org/dc/dcmitype/StillImage"/>
    <dc:date>2026-05-20T17:03:51.742463</dc:date>
    <dc:format>image/svg+xml</dc:format>
    <dc:creator>
     <cc:Agent>
      <dc:title>Matplotlib v3.10.9, https://matplotlib.org/</dc:title>
     </cc:Agent>
    </dc:creator>
   </cc:Work>
  </rdf:RDF>
 </metadata>
 <defs>
  <style type="text/css">*{stroke-linejoin: round; stroke-linecap: butt}</style>
 </defs>
 <g id="figure_1">
  <g id="patch_1">
   <path d="M 0 67.68 
L 947.52 67.68 
L 947.52 0 
L 0 0 
L 0 67.68 
z
" style="fill: none; opacity: 0"/>
  </g>
  <g id="axes_1">
   <g id="text_1">
    <g class="math-text" transform="translate(339.3 37.8) scale(0.18 -0.18)">
     <defs>
      <path id="STIXGeneral-Italic-43" d="M 4410 4250 
L 4173 2970 
L 4058 2989 
Q 3942 4032 3104 4032 
Q 2406 4032 1830 3411 
Q 1491 3053 1315 2541 
Q 1139 2029 1139 1485 
Q 1139 173 2259 173 
Q 2656 173 2985 339 
Q 3315 506 3725 934 
L 3840 838 
Q 3411 333 2998 109 
Q 2586 -115 2093 -115 
Q 1344 -115 883 329 
Q 422 774 422 1555 
Q 422 2214 748 2812 
Q 1075 3411 1619 3795 
Q 2272 4262 3021 4262 
Q 3462 4262 3770 4154 
Q 3898 4109 4032 4109 
Q 4205 4109 4275 4250 
L 4410 4250 
z
" transform="scale(0.015625)"/>
      <path id="STIXGeneral-Italic-6b" d="M 2950 2739 
L 2950 2637 
Q 2720 2624 2464 2448 
Q 2208 2272 1510 1651 
L 1747 1088 
Q 2099 262 2266 262 
Q 2400 262 2554 531 
Q 2586 582 2650 698 
L 2746 627 
Q 2522 224 2374 77 
Q 2227 -70 2035 -70 
Q 1894 -70 1782 42 
Q 1670 154 1517 454 
Q 1325 826 1133 1357 
L 877 1152 
L 570 0 
L 90 0 
L 992 3379 
Q 1082 3699 1107 3942 
Q 1088 4096 781 4096 
L 666 4096 
L 666 4198 
Q 1146 4256 1670 4371 
L 1709 4333 
L 941 1414 
L 1216 1626 
Q 2131 2330 2131 2522 
Q 2131 2637 1894 2637 
L 1805 2637 
L 1805 2739 
L 2950 2739 
z
" transform="scale(0.015625)"/>
      <path id="STIXGeneral-Regular-28" d="M 1946 -1030 
L 1869 -1133 
Q 1126 -710 716 32 
Q 307 774 307 1613 
Q 307 3386 1888 4326 
L 1946 4224 
Q 1293 3667 1075 3126 
Q 858 2586 858 1632 
Q 858 685 1082 96 
Q 1306 -493 1946 -1030 
z
" transform="scale(0.015625)"/>
      <path id="STIXGeneral-Italic-73" d="M 2342 2829 
L 2214 1933 
L 2112 1933 
Q 2022 2675 1542 2675 
Q 1370 2675 1267 2579 
Q 1165 2483 1165 2310 
Q 1165 2067 1510 1658 
Q 1946 1152 1946 787 
Q 1946 397 1686 163 
Q 1427 -70 1024 -70 
Q 838 -70 672 -6 
Q 538 51 390 51 
Q 262 51 205 -83 
L 102 -83 
L 230 934 
L 333 934 
Q 461 64 973 64 
Q 1203 64 1331 192 
Q 1459 320 1459 557 
Q 1459 845 1101 1293 
Q 698 1798 698 2131 
Q 698 2451 909 2636 
Q 1120 2822 1472 2822 
Q 1600 2822 1830 2758 
Q 1971 2714 2061 2714 
Q 2189 2714 2253 2829 
L 2342 2829 
z
" transform="scale(0.015625)"/>
      <path id="STIXGeneral-Regular-7c" d="M 851 -90 
L 429 -90 
L 429 4326 
L 851 4326 
L 851 -90 
z
" transform="scale(0.015625)"/>
      <path id="STIXGeneral-Italic-72" d="M 1126 1427 
L 1229 1651 
Q 1446 2131 1830 2534 
Q 2106 2822 2336 2822 
Q 2470 2822 2553 2732 
Q 2637 2643 2637 2496 
Q 2637 2349 2557 2249 
Q 2477 2150 2336 2150 
Q 2214 2150 2112 2317 
Q 2061 2406 2010 2406 
Q 1837 2406 1485 1805 
Q 1267 1434 1136 1104 
Q 1005 774 774 0 
L 288 0 
L 806 1869 
Q 909 2246 909 2394 
Q 909 2560 666 2560 
Q 614 2560 467 2541 
L 467 2650 
L 1459 2822 
L 1478 2810 
L 1126 1427 
z
" transform="scale(0.015625)"/>
      <path id="STIXGeneral-Regular-29" d="M 186 4224 
L 262 4326 
Q 992 3891 1408 3148 
Q 1824 2406 1824 1581 
Q 1824 -166 243 -1133 
L 186 -1030 
Q 845 -486 1059 54 
Q 1274 595 1274 1562 
Q 1274 2534 1059 3120 
Q 845 3706 186 4224 
z
" transform="scale(0.015625)"/>
      <path id="STIXGeneral-Regular-3d" d="M 4077 2048 
L 307 2048 
L 307 2470 
L 4077 2470 
L 4077 2048 
z
M 4077 768 
L 307 768 
L 307 1190 
L 4077 1190 
L 4077 768 
z
" transform="scale(0.015625)"/>
      <path id="STIXGeneral-Regular-54" d="M 3795 3149 
L 3642 3149 
Q 3539 3674 3353 3821 
Q 3168 3968 2656 3968 
L 2278 3968 
L 2278 710 
Q 2278 346 2387 243 
Q 2496 141 2893 122 
L 2893 0 
L 1024 0 
L 1024 122 
Q 1427 147 1526 256 
Q 1626 365 1626 787 
L 1626 3968 
L 1242 3968 
Q 723 3968 540 3817 
Q 358 3667 262 3149 
L 109 3149 
L 154 4237 
L 3750 4237 
L 3795 3149 
z
" transform="scale(0.015625)"/>
      <path id="STIXGeneral-Regular-6f" d="M 3008 1478 
Q 3008 806 2608 371 
Q 2208 -64 1568 -64 
Q 979 -64 582 368 
Q 186 800 186 1459 
Q 186 2125 582 2534 
Q 979 2944 1626 2944 
Q 2221 2944 2614 2537 
Q 3008 2131 3008 1478 
z
M 2432 1306 
Q 2432 2035 2112 2445 
Q 1856 2765 1504 2765 
Q 1171 2765 966 2493 
Q 762 2221 762 1747 
Q 762 928 1101 435 
Q 1318 115 1677 115 
Q 2029 115 2230 432 
Q 2432 749 2432 1306 
z
" transform="scale(0.015625)"/>
      <path id="STIXGeneral-Regular-70" d="M 1018 2931 
L 1018 2438 
Q 1421 2944 1939 2944 
Q 2406 2944 2707 2560 
Q 3008 2176 3008 1581 
Q 3008 883 2621 409 
Q 2234 -64 1664 -64 
Q 1466 -64 1328 -6 
Q 1190 51 1018 211 
L 1018 -794 
Q 1018 -1094 1120 -1180 
Q 1222 -1267 1581 -1274 
L 1581 -1389 
L 32 -1389 
L 32 -1280 
Q 314 -1254 397 -1171 
Q 480 -1088 480 -838 
L 480 2157 
Q 480 2381 429 2451 
Q 378 2522 218 2522 
Q 115 2522 58 2515 
L 58 2618 
Q 506 2752 979 2944 
L 1018 2931 
z
M 1018 2138 
L 1018 563 
Q 1018 422 1238 281 
Q 1459 141 1683 141 
Q 2029 141 2243 467 
Q 2458 794 2458 1325 
Q 2458 1888 2243 2224 
Q 2029 2560 1670 2560 
Q 1446 2560 1232 2419 
Q 1018 2278 1018 2138 
z
" transform="scale(0.015625)"/>
      <path id="STIXGeneral-Regular-4b" d="M 4627 0 
L 2688 0 
L 2688 122 
L 2861 128 
Q 3130 134 3130 282 
Q 3130 397 2922 643 
Q 2714 890 2253 1370 
L 1613 2029 
L 1446 1894 
L 1446 710 
Q 1446 352 1548 253 
Q 1651 154 2016 122 
L 2016 0 
L 211 0 
L 211 122 
Q 589 141 691 262 
Q 794 384 794 800 
L 794 3514 
Q 794 3872 691 3981 
Q 589 4090 218 4115 
L 218 4237 
L 2022 4237 
L 2022 4115 
Q 1632 4090 1539 3987 
Q 1446 3885 1446 3507 
L 1446 2227 
L 2586 3277 
Q 2861 3533 2973 3667 
Q 3085 3802 3085 3910 
Q 3085 4013 3030 4057 
Q 2976 4102 2822 4109 
L 2662 4115 
L 2662 4237 
L 4320 4237 
L 4320 4115 
Q 3994 4090 3824 4003 
Q 3654 3917 3322 3597 
L 2131 2458 
L 3629 819 
Q 4026 384 4214 253 
Q 4403 122 4627 122 
L 4627 0 
z
" transform="scale(0.015625)"/>
      <path id="STIXGeneral-Regular-2c" d="M 531 -902 
L 467 -781 
Q 998 -422 998 -96 
Q 998 -13 909 -13 
Q 883 -13 822 -25 
Q 762 -38 723 -38 
Q 352 -38 352 288 
Q 352 454 457 553 
Q 563 653 736 653 
Q 954 653 1101 496 
Q 1248 339 1248 96 
Q 1248 -198 1053 -473 
Q 858 -749 531 -902 
z
" transform="scale(0.015625)"/>
      <path id="STIXGeneral-Regular-2229" d="M 3661 -198 
L 3238 -198 
L 3238 1696 
Q 3238 2240 2867 2624 
Q 2496 3008 1984 3008 
Q 1459 3008 1094 2624 
Q 730 2240 730 1690 
L 730 -198 
L 307 -198 
L 307 1715 
Q 307 2470 784 2950 
Q 1261 3430 1984 3430 
Q 2701 3430 3181 2944 
Q 3661 2458 3661 1696 
L 3661 -198 
z
" transform="scale(0.015625)"/>
      <path id="STIXGeneral-Italic-4f" d="M 4474 2675 
Q 4474 1990 4106 1363 
Q 3738 736 3149 339 
Q 2477 -115 1779 -115 
Q 1146 -115 765 281 
Q 384 678 384 1382 
Q 384 1965 697 2582 
Q 1011 3200 1517 3642 
Q 2234 4262 3034 4262 
Q 3718 4269 4096 3840 
Q 4474 3411 4474 2675 
z
M 3802 3078 
Q 3802 3533 3581 3792 
Q 3360 4051 2976 4051 
Q 2342 4051 1786 3302 
Q 1446 2842 1251 2259 
Q 1056 1677 1056 1178 
Q 1056 653 1270 374 
Q 1485 96 1888 96 
Q 2477 96 2976 704 
Q 3354 1178 3578 1862 
Q 3802 2547 3802 3078 
z
" transform="scale(0.015625)"/>
      <path id="STIXGeneral-Regular-2212" d="M 3974 1408 
L 410 1408 
L 410 1830 
L 3974 1830 
L 3974 1408 
z
" transform="scale(0.015625)"/>
     </defs>
     <use xlink:href="#STIXGeneral-Italic-43" transform="translate(0 0.203125)"/>
     <use xlink:href="#STIXGeneral-Italic-6b" transform="translate(66.699997 -13.025) scale(0.7)"/>
     <use xlink:href="#STIXGeneral-Regular-28" transform="translate(102.189368 0.203125)"/>
     <use xlink:href="#STIXGeneral-Italic-73" transform="translate(135.489355 0.203125)"/>
     <use xlink:href="#STIXGeneral-Regular-7c" transform="translate(174.389349 0.203125)"/>
     <use xlink:href="#STIXGeneral-Italic-72" transform="translate(194.389334 0.203125)"/>
     <use xlink:href="#STIXGeneral-Regular-29" transform="translate(233.289328 0.203125)"/>
     <use xlink:href="#STIXGeneral-Regular-3d" transform="translate(281.029312 0.203125)"/>
     <use xlink:href="#STIXGeneral-Regular-7c" transform="translate(363.969293 53.192188) scale(0.7)"/>
     <use xlink:href="#STIXGeneral-Regular-54" transform="translate(377.969283 53.192188) scale(0.7)"/>
     <use xlink:href="#STIXGeneral-Regular-6f" transform="translate(420.739276 53.192188) scale(0.7)"/>
     <use xlink:href="#STIXGeneral-Regular-70" transform="translate(455.739265 53.192188) scale(0.7)"/>
     <use xlink:href="#STIXGeneral-Regular-4b" transform="translate(490.739255 53.192188) scale(0.7)"/>
     <use xlink:href="#STIXGeneral-Regular-28" transform="translate(541.279242 53.192188) scale(0.7)"/>
     <use xlink:href="#STIXGeneral-Italic-73" transform="translate(564.589233 53.192188) scale(0.7)"/>
     <use xlink:href="#STIXGeneral-Regular-2c" transform="translate(591.819229 53.192188) scale(0.7)"/>
     <use xlink:href="#STIXGeneral-Italic-6b" transform="translate(619.427216 53.192188) scale(0.7)"/>
     <use xlink:href="#STIXGeneral-Regular-29" transform="translate(650.507212 53.192188) scale(0.7)"/>
     <use xlink:href="#STIXGeneral-Regular-2229" transform="translate(683.925201 53.192188) scale(0.7)"/>
     <use xlink:href="#STIXGeneral-Regular-28" transform="translate(737.433187 53.192188) scale(0.7)"/>
     <use xlink:href="#STIXGeneral-Regular-54" transform="translate(760.743179 53.192188) scale(0.7)"/>
     <use xlink:href="#STIXGeneral-Regular-6f" transform="translate(803.513172 53.192188) scale(0.7)"/>
     <use xlink:href="#STIXGeneral-Regular-70" transform="translate(838.513162 53.192188) scale(0.7)"/>
     <use xlink:href="#STIXGeneral-Regular-4b" transform="translate(873.513151 53.192188) scale(0.7)"/>
     <use xlink:href="#STIXGeneral-Regular-28" transform="translate(924.053138 53.192188) scale(0.7)"/>
     <use xlink:href="#STIXGeneral-Italic-4f" transform="translate(947.36313 53.192188) scale(0.7)"/>
     <use xlink:href="#STIXGeneral-Regular-2c" transform="translate(997.903117 53.192188) scale(0.7)"/>
     <use xlink:href="#STIXGeneral-Italic-6b" transform="translate(1025.511104 53.192188) scale(0.7)"/>
     <use xlink:href="#STIXGeneral-Regular-29" transform="translate(1056.591099 53.192188) scale(0.7)"/>
     <use xlink:href="#STIXGeneral-Regular-2212" transform="translate(1090.009088 53.192188) scale(0.7)"/>
     <use xlink:href="#STIXGeneral-Regular-54" transform="translate(1148.067075 53.192188) scale(0.7)"/>
     <use xlink:href="#STIXGeneral-Regular-6f" transform="translate(1190.837068 53.192188) scale(0.7)"/>
     <use xlink:href="#STIXGeneral-Regular-70" transform="translate(1225.837058 53.192188) scale(0.7)"/>
     <use xlink:href="#STIXGeneral-Regular-4b" transform="translate(1260.837047 53.192188) scale(0.7)"/>
     <use xlink:href="#STIXGeneral-Regular-28" transform="translate(1311.377034 53.192188) scale(0.7)"/>
     <use xlink:href="#STIXGeneral-Italic-72" transform="translate(1334.687026 53.192188) scale(0.7)"/>
     <use xlink:href="#STIXGeneral-Regular-2c" transform="translate(1361.917021 53.192188) scale(0.7)"/>
     <use xlink:href="#STIXGeneral-Italic-6b" transform="translate(1389.525008 53.192188) scale(0.7)"/>
     <use xlink:href="#STIXGeneral-Regular-29" transform="translate(1420.605004 53.192188) scale(0.7)"/>
     <use xlink:href="#STIXGeneral-Regular-29" transform="translate(1443.914995 53.192188) scale(0.7)"/>
     <use xlink:href="#STIXGeneral-Regular-7c" transform="translate(1467.224987 53.192188) scale(0.7)"/>
     <use xlink:href="#STIXGeneral-Regular-7c" transform="translate(566.969293 -41.057813) scale(0.7)"/>
     <use xlink:href="#STIXGeneral-Regular-54" transform="translate(580.969283 -41.057813) scale(0.7)"/>
     <use xlink:href="#STIXGeneral-Regular-6f" transform="translate(623.739276 -41.057813) scale(0.7)"/>
     <use xlink:href="#STIXGeneral-Regular-70" transform="translate(658.739265 -41.057813) scale(0.7)"/>
     <use xlink:href="#STIXGeneral-Regular-4b" transform="translate(693.739255 -41.057813) scale(0.7)"/>
     <use xlink:href="#STIXGeneral-Regular-28" transform="translate(744.279242 -41.057813) scale(0.7)"/>
     <use xlink:href="#STIXGeneral-Italic-4f" transform="translate(767.589233 -41.057813) scale(0.7)"/>
     <use xlink:href="#STIXGeneral-Regular-2c" transform="translate(818.129221 -41.057813) scale(0.7)"/>
     <use xlink:href="#STIXGeneral-Italic-6b" transform="translate(845.737207 -41.057813) scale(0.7)"/>
     <use xlink:href="#STIXGeneral-Regular-29" transform="translate(876.817203 -41.057813) scale(0.7)"/>
     <use xlink:href="#STIXGeneral-Regular-2212" transform="translate(910.235192 -41.057813) scale(0.7)"/>
     <use xlink:href="#STIXGeneral-Regular-54" transform="translate(968.293179 -41.057813) scale(0.7)"/>
     <use xlink:href="#STIXGeneral-Regular-6f" transform="translate(1011.063172 -41.057813) scale(0.7)"/>
     <use xlink:href="#STIXGeneral-Regular-70" transform="translate(1046.063162 -41.057813) scale(0.7)"/>
     <use xlink:href="#STIXGeneral-Regular-4b" transform="translate(1081.063151 -41.057813) scale(0.7)"/>
     <use xlink:href="#STIXGeneral-Regular-28" transform="translate(1131.603138 -41.057813) scale(0.7)"/>
     <use xlink:href="#STIXGeneral-Italic-72" transform="translate(1154.91313 -41.057813) scale(0.7)"/>
     <use xlink:href="#STIXGeneral-Regular-2c" transform="translate(1182.143125 -41.057813) scale(0.7)"/>
     <use xlink:href="#STIXGeneral-Italic-6b" transform="translate(1209.751112 -41.057813) scale(0.7)"/>
     <use xlink:href="#STIXGeneral-Regular-29" transform="translate(1240.831108 -41.057813) scale(0.7)"/>
     <use xlink:href="#STIXGeneral-Regular-7c" transform="translate(1264.141099 -41.057813) scale(0.7)"/>
     <path d="M 363.969293 13 
L 363.969293 19.25 
L 1481.224976 19.25 
L 1481.224976 13 
L 363.969293 13 
z
"/>
    </g>
   </g>
  </g>
 </g>
</svg>
