<?xml version="1.0" encoding="utf-8" standalone="no"?>
<!DOCTYPE svg PUBLIC "-//W3C//DTD SVG 1.1//EN"
  "http://www.w3.org/Graphics/SVG/1.1/DTD/svg11.dtd">
<svg xmlns:xlink="http://www.w3.org/1999/xlink" width="867.52pt" height="67.68pt" viewBox="0 0 867.52 67.68" xmlns="http://www.w3.org/2000/svg" version="1.1">

 <style type="text/css"><![CDATA[
  .math-text { fill: #24292f; }
  @media (prefers-color-scheme: dark) {
   .math-text { fill: #f0f6fc; }
  }
 ]]></style>
 <metadata>
  <rdf:RDF xmlns:dc="http://purl.org/dc/elements/1.1/" xmlns:cc="http://creativecommons.org/ns#" xmlns:rdf="http://www.w3.org/1999/02/22-rdf-syntax-ns#">
   <cc:Work>
    <dc:type rdf:resource="http://purl.org/dc/dcmitype/StillImage"/>
    <dc:date>2026-05-20T17:03:51.480801</dc:date>
    <dc:format>image/svg+xml</dc:format>
    <dc:creator>
     <cc:Agent>
      <dc:title>Matplotlib v3.10.9, https://matplotlib.org/</dc:title>
     </cc:Agent>
    </dc:creator>
   </cc:Work>
  </rdf:RDF>
 </metadata>
 <defs>
  <style type="text/css">*{stroke-linejoin: round; stroke-linecap: butt}</style>
 </defs>
 <g id="figure_1">
  <g id="patch_1">
   <path d="M 0 67.68 
L 867.52 67.68 
L 867.52 0 
L 0 0 
L 0 67.68 
z
" style="fill: none; opacity: 0"/>
  </g>
  <g id="axes_1">
   <g id="text_1">
    <g class="math-text" transform="translate(303.35 39.42) scale(0.18 -0.18)">
     <defs>
      <path id="STIXGeneral-Italic-73" d="M 2342 2829 
L 2214 1933 
L 2112 1933 
Q 2022 2675 1542 2675 
Q 1370 2675 1267 2579 
Q 1165 2483 1165 2310 
Q 1165 2067 1510 1658 
Q 1946 1152 1946 787 
Q 1946 397 1686 163 
Q 1427 -70 1024 -70 
Q 838 -70 672 -6 
Q 538 51 390 51 
Q 262 51 205 -83 
L 102 -83 
L 230 934 
L 333 934 
Q 461 64 973 64 
Q 1203 64 1331 192 
Q 1459 320 1459 557 
Q 1459 845 1101 1293 
Q 698 1798 698 2131 
Q 698 2451 909 2636 
Q 1120 2822 1472 2822 
Q 1600 2822 1830 2758 
Q 1971 2714 2061 2714 
Q 2189 2714 2253 2829 
L 2342 2829 
z
" transform="scale(0.015625)"/>
      <path id="STIXGeneral-Italic-6c" d="M 1786 4339 
L 806 595 
Q 755 410 755 320 
Q 755 205 864 205 
Q 1037 205 1293 570 
L 1453 794 
L 1542 730 
Q 1254 275 1046 102 
Q 838 -70 576 -70 
Q 262 -70 262 288 
Q 262 397 288 480 
L 1165 3834 
Q 1184 3898 1184 3955 
Q 1184 4096 870 4096 
L 755 4096 
L 755 4198 
Q 1203 4250 1747 4371 
L 1786 4339 
z
" transform="scale(0.015625)"/>
      <path id="STIXGeneral-Italic-69" d="M 1690 3834 
Q 1690 3699 1597 3603 
Q 1504 3507 1376 3507 
Q 1235 3507 1152 3600 
Q 1069 3693 1069 3846 
Q 1069 3994 1155 4090 
Q 1242 4186 1370 4186 
Q 1498 4186 1594 4080 
Q 1690 3974 1690 3834 
z
M 1421 730 
L 1504 659 
Q 1235 243 1049 86 
Q 864 -70 627 -70 
Q 314 -70 314 282 
Q 314 467 454 992 
L 762 2125 
Q 819 2330 819 2406 
Q 819 2502 745 2528 
Q 672 2554 410 2560 
L 410 2662 
Q 704 2688 1434 2822 
L 1459 2803 
L 858 608 
Q 794 390 794 326 
Q 794 230 883 230 
Q 1043 230 1421 730 
z
" transform="scale(0.015625)"/>
      <path id="STIXGeneral-Italic-6e" d="M 2944 749 
L 3034 666 
Q 2707 218 2534 80 
Q 2362 -58 2138 -58 
Q 2010 -58 1923 28 
Q 1837 115 1837 288 
Q 1837 390 1939 768 
L 2221 1805 
Q 2310 2150 2310 2310 
Q 2310 2496 2157 2496 
Q 1971 2496 1750 2275 
Q 1530 2054 1210 1587 
Q 998 1274 899 1024 
Q 800 774 570 0 
L 90 0 
L 704 2240 
Q 717 2304 717 2349 
Q 717 2445 630 2480 
Q 544 2515 301 2522 
L 301 2624 
Q 550 2675 857 2729 
Q 1165 2784 1338 2822 
L 1363 2810 
L 934 1414 
Q 1408 2170 1753 2496 
Q 2099 2822 2413 2822 
Q 2611 2822 2720 2716 
Q 2829 2611 2829 2432 
Q 2829 2272 2765 2048 
L 2406 749 
Q 2317 429 2317 358 
Q 2317 243 2419 243 
Q 2541 243 2810 582 
Q 2854 634 2944 749 
z
" transform="scale(0.015625)"/>
      <path id="STIXGeneral-Regular-28" d="M 1946 -1030 
L 1869 -1133 
Q 1126 -710 716 32 
Q 307 774 307 1613 
Q 307 3386 1888 4326 
L 1946 4224 
Q 1293 3667 1075 3126 
Q 858 2586 858 1632 
Q 858 685 1082 96 
Q 1306 -493 1946 -1030 
z
" transform="scale(0.015625)"/>
      <path id="STIXGeneral-Italic-71" d="M 3098 2739 
L 2042 -966 
Q 2029 -1018 2029 -1037 
Q 2029 -1235 2394 -1235 
L 2490 -1235 
L 2490 -1338 
L 973 -1338 
L 973 -1235 
Q 1267 -1216 1382 -1139 
Q 1498 -1062 1555 -877 
L 2131 979 
Q 1754 378 1466 154 
Q 1178 -70 800 -70 
Q 499 -70 329 128 
Q 160 326 160 672 
Q 160 1165 445 1670 
Q 730 2176 1168 2499 
Q 1606 2822 2035 2822 
Q 2438 2822 2528 2426 
L 2630 2739 
L 3098 2739 
z
M 2432 2298 
Q 2432 2458 2323 2570 
Q 2214 2682 2054 2682 
Q 1792 2682 1459 2368 
Q 1133 2054 921 1606 
Q 710 1158 710 762 
Q 710 269 1050 269 
Q 1312 269 1574 499 
Q 1901 781 2166 1341 
Q 2432 1901 2432 2298 
z
" transform="scale(0.015625)"/>
      <path id="STIXGeneral-Regular-2c" d="M 531 -902 
L 467 -781 
Q 998 -422 998 -96 
Q 998 -13 909 -13 
Q 883 -13 822 -25 
Q 762 -38 723 -38 
Q 352 -38 352 288 
Q 352 454 457 553 
Q 563 653 736 653 
Q 954 653 1101 496 
Q 1248 339 1248 96 
Q 1248 -198 1053 -473 
Q 858 -749 531 -902 
z
" transform="scale(0.015625)"/>
      <path id="STIXGeneral-Italic-62" d="M 1043 1856 
L 1050 1856 
Q 1370 2387 1654 2604 
Q 1939 2822 2285 2822 
Q 2618 2822 2822 2617 
Q 3027 2413 3027 2054 
Q 3027 1562 2726 1062 
Q 2426 563 1942 246 
Q 1459 -70 979 -70 
Q 685 -70 416 32 
Q 147 134 147 269 
L 147 307 
L 1056 3654 
Q 1114 3885 1114 3955 
Q 1114 4058 1053 4080 
Q 992 4102 704 4115 
L 704 4224 
Q 1184 4282 1683 4371 
L 1715 4339 
L 1581 3814 
L 1043 1856 
z
M 2483 1958 
Q 2483 2509 2035 2509 
Q 1594 2509 1158 1773 
Q 954 1427 826 1008 
Q 698 589 698 294 
Q 698 77 992 77 
Q 1414 77 1779 454 
Q 2074 762 2278 1187 
Q 2483 1613 2483 1958 
z
" transform="scale(0.015625)"/>
      <path id="STIXGeneral-Regular-29" d="M 186 4224 
L 262 4326 
Q 992 3891 1408 3148 
Q 1824 2406 1824 1581 
Q 1824 -166 243 -1133 
L 186 -1030 
Q 845 -486 1059 54 
Q 1274 595 1274 1562 
Q 1274 2534 1059 3120 
Q 845 3706 186 4224 
z
" transform="scale(0.015625)"/>
      <path id="STIXGeneral-Regular-3d" d="M 4077 2048 
L 307 2048 
L 307 2470 
L 4077 2470 
L 4077 2048 
z
M 4077 768 
L 307 768 
L 307 1190 
L 4077 1190 
L 4077 768 
z
" transform="scale(0.015625)"/>
      <path id="STIXGeneral-Italic-68" d="M 2976 755 
L 3059 672 
Q 2765 256 2566 99 
Q 2368 -58 2125 -58 
Q 1997 -58 1920 16 
Q 1843 90 1843 211 
Q 1843 320 1971 800 
L 2323 2125 
Q 2368 2304 2368 2336 
Q 2368 2496 2189 2496 
Q 2016 2496 1744 2240 
Q 1472 1984 1216 1600 
Q 1018 1293 902 1001 
Q 787 710 602 0 
L 122 0 
L 1056 3546 
Q 1139 3866 1139 3942 
Q 1139 4019 1056 4060 
Q 973 4102 877 4102 
L 704 4102 
L 704 4198 
Q 1190 4256 1709 4371 
L 1754 4333 
L 979 1472 
Q 1811 2822 2451 2822 
Q 2662 2822 2764 2704 
Q 2867 2586 2867 2394 
Q 2867 2118 2560 1158 
Q 2349 512 2349 358 
Q 2349 243 2451 243 
Q 2528 243 2621 336 
Q 2714 429 2976 755 
z
" transform="scale(0.015625)"/>
      <path id="STIXGeneral-Italic-54" d="M 4051 4179 
L 3770 3130 
L 3661 3142 
Q 3680 3302 3680 3437 
Q 3680 3955 3034 3955 
L 2662 3955 
L 1786 819 
Q 1696 506 1696 397 
Q 1696 250 1766 195 
Q 1837 141 2035 122 
L 2259 102 
L 2259 0 
L 416 0 
L 416 102 
Q 749 134 889 230 
Q 1030 326 1101 582 
L 2016 3955 
Q 1254 3955 988 3817 
Q 723 3680 493 3162 
L 378 3187 
L 646 4179 
L 4051 4179 
z
" transform="scale(0.015625)"/>
      <path id="STIXGeneral-Regular-304" d="M -474 3501 
L -2464 3501 
L -2464 3846 
L -474 3846 
L -474 3501 
z
" transform="scale(0.015625)"/>
      <path id="STIXGeneral-Regular-221a" d="M 6163 6227 
L 3104 -1658 
L 2899 -1658 
L 1606 1734 
Q 1466 2112 1210 2112 
Q 1011 2112 794 1914 
L 717 2042 
L 1715 2835 
L 1837 2835 
L 3142 -595 
L 3168 -595 
L 5818 6227 
L 6163 6227 
z
" transform="scale(0.015625)"/>
      <path id="STIXGeneral-Italic-64" d="M 3334 4371 
L 3373 4333 
L 3123 3360 
L 2739 1958 
Q 2323 429 2323 384 
Q 2323 256 2438 256 
Q 2522 256 2614 336 
Q 2707 416 2963 710 
L 3040 646 
Q 2547 -83 2099 -83 
Q 1978 -83 1907 -6 
Q 1837 70 1837 205 
Q 1837 397 1920 774 
Q 1645 307 1379 118 
Q 1114 -70 781 -70 
Q 461 -70 278 125 
Q 96 320 96 678 
Q 96 1440 713 2131 
Q 1331 2822 1965 2822 
Q 2163 2822 2256 2732 
Q 2349 2643 2381 2451 
L 2387 2451 
L 2675 3494 
Q 2765 3808 2765 3949 
Q 2765 4051 2694 4076 
Q 2624 4102 2355 4115 
L 2355 4224 
Q 2848 4269 3334 4371 
z
M 2278 2310 
Q 2278 2477 2185 2576 
Q 2093 2675 1978 2675 
Q 1677 2675 1395 2381 
Q 1075 2042 864 1571 
Q 653 1101 653 704 
Q 653 486 752 361 
Q 851 237 1024 237 
Q 1312 237 1606 550 
Q 1901 864 2089 1350 
Q 2278 1837 2278 2310 
z
" transform="scale(0.015625)"/>
      <path id="STIXGeneral-Italic-6d" d="M 4506 672 
L 4474 627 
Q 3981 -58 3552 -58 
Q 3296 -58 3296 237 
Q 3296 333 3379 659 
L 3750 2112 
Q 3795 2291 3795 2355 
Q 3795 2413 3756 2451 
Q 3718 2490 3667 2490 
Q 3366 2490 2829 1741 
Q 2592 1408 2457 1072 
Q 2323 736 2138 0 
L 1658 0 
L 1830 595 
Q 2266 2099 2266 2330 
Q 2266 2490 2125 2490 
Q 1965 2490 1702 2237 
Q 1440 1984 1171 1574 
Q 1011 1325 899 1043 
Q 787 762 557 0 
L 77 0 
L 352 922 
Q 704 2093 704 2381 
Q 704 2522 442 2522 
L 282 2522 
L 282 2624 
L 1318 2822 
L 1338 2810 
L 966 1472 
Q 1798 2822 2374 2822 
Q 2560 2822 2659 2720 
Q 2758 2618 2758 2438 
Q 2758 2195 2502 1466 
Q 2842 2003 3069 2275 
Q 3296 2547 3526 2694 
Q 3731 2822 3930 2822 
Q 4102 2822 4201 2710 
Q 4301 2598 4301 2419 
Q 4301 2336 4282 2240 
L 3846 634 
Q 3782 390 3782 346 
Q 3782 243 3859 243 
Q 4000 243 4275 582 
L 4410 749 
L 4506 672 
z
" transform="scale(0.015625)"/>
      <path id="STIXGeneral-Italic-6f" d="M 2995 1926 
Q 2995 1562 2812 1168 
Q 2630 774 2317 461 
Q 1786 -70 1114 -70 
Q 666 -70 419 163 
Q 173 397 173 819 
Q 173 1350 496 1856 
Q 819 2362 1325 2630 
Q 1683 2822 2093 2822 
Q 2490 2822 2742 2582 
Q 2995 2342 2995 1926 
z
M 2458 2086 
Q 2458 2374 2336 2531 
Q 2214 2688 2003 2688 
Q 1574 2688 1184 2106 
Q 710 1382 710 646 
Q 710 365 844 214 
Q 979 64 1210 64 
Q 1600 64 1984 595 
Q 2202 890 2330 1302 
Q 2458 1715 2458 2086 
z
" transform="scale(0.015625)"/>
      <path id="STIXGeneral-Italic-65" d="M 2291 698 
L 2368 621 
Q 1805 -70 1062 -70 
Q 672 -70 435 170 
Q 198 410 198 806 
Q 198 1555 796 2188 
Q 1395 2822 2112 2822 
Q 2362 2822 2499 2707 
Q 2637 2592 2637 2387 
Q 2637 1965 2147 1632 
Q 1658 1299 819 1190 
Q 755 1062 755 800 
Q 755 538 918 378 
Q 1082 218 1350 218 
Q 1562 218 1754 317 
Q 1946 416 2291 698 
z
M 973 1613 
L 864 1331 
Q 1581 1504 1894 1805 
Q 2214 2112 2214 2426 
Q 2214 2675 1990 2675 
Q 1722 2675 1430 2364 
Q 1139 2054 973 1613 
z
" transform="scale(0.015625)"/>
      <path id="STIXGeneral-Regular-31" d="M 2522 0 
L 755 0 
L 755 96 
Q 1107 115 1235 227 
Q 1363 339 1363 608 
L 1363 3482 
Q 1363 3795 1171 3795 
Q 1082 3795 883 3718 
L 710 3654 
L 710 3744 
L 1856 4326 
L 1914 4307 
L 1914 486 
Q 1914 275 2042 185 
Q 2170 96 2522 96 
L 2522 0 
z
" transform="scale(0.015625)"/>
      <path id="STIXGeneral-Regular-2b" d="M 4070 1408 
L 2400 1408 
L 2400 -262 
L 1978 -262 
L 1978 1408 
L 307 1408 
L 307 1830 
L 1978 1830 
L 1978 3501 
L 2400 3501 
L 2400 1830 
L 4070 1830 
L 4070 1408 
z
" transform="scale(0.015625)"/>
      <path id="STIXGeneral-Regular-2212" d="M 3974 1408 
L 410 1408 
L 410 1830 
L 3974 1830 
L 3974 1408 
z
" transform="scale(0.015625)"/>
      <path id="STIXGeneral-Regular-2211" d="M 5478 256 
L 5139 -1658 
L 371 -1658 
L 2880 1606 
L 531 4883 
L 5312 4883 
L 5312 3277 
L 5120 3277 
Q 5018 3949 4765 4205 
Q 4512 4461 3891 4461 
L 1843 4461 
L 3699 1958 
L 1549 -819 
L 4198 -819 
Q 4698 -819 4934 -550 
Q 5171 -282 5286 256 
L 5478 256 
z
" transform="scale(0.015625)"/>
      <path id="STIXGeneral-Italic-74" d="M 1894 2739 
L 1862 2534 
L 1325 2534 
L 768 435 
Q 755 384 755 346 
Q 755 243 851 243 
Q 928 243 1030 342 
Q 1133 442 1370 749 
L 1453 704 
Q 1158 256 969 93 
Q 781 -70 538 -70 
Q 243 -70 243 166 
Q 243 230 346 640 
L 845 2534 
L 365 2534 
L 358 2573 
Q 358 2688 570 2733 
Q 730 2771 992 2979 
Q 1254 3187 1421 3437 
Q 1459 3494 1510 3494 
Q 1568 3494 1568 3443 
Q 1568 3411 1562 3398 
L 1382 2739 
L 1894 2739 
z
" transform="scale(0.015625)"/>
     </defs>
     <use xlink:href="#STIXGeneral-Italic-73" transform="translate(0 0.753125)"/>
     <use xlink:href="#STIXGeneral-Italic-6c" transform="translate(38.899994 -12.475) scale(0.7)"/>
     <use xlink:href="#STIXGeneral-Italic-69" transform="translate(58.359985 -12.475) scale(0.7)"/>
     <use xlink:href="#STIXGeneral-Italic-6e" transform="translate(77.819977 -12.475) scale(0.7)"/>
     <use xlink:href="#STIXGeneral-Regular-28" transform="translate(117.229341 0.753125)"/>
     <use xlink:href="#STIXGeneral-Italic-71" transform="translate(150.529329 0.753125)"/>
     <use xlink:href="#STIXGeneral-Regular-2c" transform="translate(200.529314 0.753125)"/>
     <use xlink:href="#STIXGeneral-Italic-62" transform="translate(239.969295 0.753125)"/>
     <use xlink:href="#STIXGeneral-Regular-29" transform="translate(289.969279 0.753125)"/>
     <use xlink:href="#STIXGeneral-Regular-3d" transform="translate(337.709264 0.753125)"/>
     <use xlink:href="#STIXGeneral-Italic-68" transform="translate(472.649245 67.313437) scale(0.7)"/>
     <use xlink:href="#STIXGeneral-Italic-54" transform="translate(515.528281 92.005937) scale(0.49)"/>
     <use xlink:href="#STIXGeneral-Italic-71" transform="translate(507.649234 48.794062) scale(0.49)"/>
     <use xlink:href="#STIXGeneral-Regular-304" transform="translate(583.561961 85.574375) scale(0.7)"/>
     <use xlink:href="#STIXGeneral-Italic-68" transform="translate(545.858839 67.313437) scale(0.7)"/>
     <use xlink:href="#STIXGeneral-Italic-62" transform="translate(581.939125 58.05375) scale(0.49)"/>
     <use xlink:href="#STIXGeneral-Regular-221a" transform="translate(420.649245 -65.007812) scale(0.7)"/>
     <use xlink:href="#STIXGeneral-Italic-64" transform="translate(494.359236 -64.882812) scale(0.7)"/>
     <use xlink:href="#STIXGeneral-Italic-6d" transform="translate(529.359225 -74.1425) scale(0.49)"/>
     <use xlink:href="#STIXGeneral-Italic-6f" transform="translate(564.737216 -74.1425) scale(0.49)"/>
     <use xlink:href="#STIXGeneral-Italic-64" transform="translate(589.237209 -74.1425) scale(0.49)"/>
     <use xlink:href="#STIXGeneral-Italic-65" transform="translate(613.737202 -74.1425) scale(0.49)"/>
     <use xlink:href="#STIXGeneral-Italic-6c" transform="translate(635.493199 -74.1425) scale(0.49)"/>
     <use xlink:href="#STIXGeneral-Regular-2c" transform="translate(673.451755 0.753125)"/>
     <use xlink:href="#STIXGeneral-Regular-304" transform="translate(839.091714 26.846875)"/>
     <use xlink:href="#STIXGeneral-Italic-68" transform="translate(785.091718 0.753125)"/>
     <use xlink:href="#STIXGeneral-Italic-62" transform="translate(836.634984 -12.475) scale(0.7)"/>
     <use xlink:href="#STIXGeneral-Regular-3d" transform="translate(890.484344 0.753125)"/>
     <use xlink:href="#STIXGeneral-Regular-31" transform="translate(981.424326 38.55) scale(0.7)"/>
     <use xlink:href="#STIXGeneral-Italic-6d" transform="translate(973.424326 -23.565625) scale(0.7)"/>
     <use xlink:href="#STIXGeneral-Regular-28" transform="translate(1036.464313 108.192188) scale(0.7)"/>
     <use xlink:href="#STIXGeneral-Italic-62" transform="translate(1059.774304 108.192188) scale(0.7)"/>
     <use xlink:href="#STIXGeneral-Regular-2b" transform="translate(1104.882291 108.192188) scale(0.7)"/>
     <use xlink:href="#STIXGeneral-Regular-31" transform="translate(1162.940278 108.192188) scale(0.7)"/>
     <use xlink:href="#STIXGeneral-Regular-29" transform="translate(1197.940267 108.192188) scale(0.7)"/>
     <use xlink:href="#STIXGeneral-Italic-6d" transform="translate(1221.250258 108.192188) scale(0.7)"/>
     <use xlink:href="#STIXGeneral-Regular-2212" transform="translate(1281.898243 108.192188) scale(0.7)"/>
     <use xlink:href="#STIXGeneral-Regular-31" transform="translate(1339.95623 108.192188) scale(0.7)"/>
     <use xlink:href="#STIXGeneral-Regular-2211" transform="translate(1165.464313 0.753125)"/>
     <use xlink:href="#STIXGeneral-Italic-74" transform="translate(1119.464313 -91.710938) scale(0.7)"/>
     <use xlink:href="#STIXGeneral-Regular-3d" transform="translate(1149.032302 -91.710938) scale(0.7)"/>
     <use xlink:href="#STIXGeneral-Italic-62" transform="translate(1207.090288 -91.710938) scale(0.7)"/>
     <use xlink:href="#STIXGeneral-Italic-6d" transform="translate(1242.090278 -91.710938) scale(0.7)"/>
     <use xlink:href="#STIXGeneral-Italic-68" transform="translate(1374.956219 0.753125)"/>
     <use xlink:href="#STIXGeneral-Italic-74" transform="translate(1424.956204 -12.475) scale(0.7)"/>
     <path d="M 420.649245 13.55 
L 420.649245 19.8 
L 660.951755 19.8 
L 660.951755 13.55 
L 420.649245 13.55 
z
"/>
     <path d="M 485.609236 -1.45 
L 485.609236 2.925 
L 660.951755 2.925 
L 660.951755 -1.45 
L 485.609236 -1.45 
z
"/>
     <path d="M 973.424326 13.55 
L 973.424326 19.8 
L 1023.964313 19.8 
L 1023.964313 13.55 
L 973.424326 13.55 
z
"/>
    </g>
   </g>
  </g>
 </g>
</svg>
