<?xml version="1.0" encoding="utf-8" standalone="no"?>
<!DOCTYPE svg PUBLIC "-//W3C//DTD SVG 1.1//EN"
  "http://www.w3.org/Graphics/SVG/1.1/DTD/svg11.dtd">
<svg xmlns:xlink="http://www.w3.org/1999/xlink" width="499.52pt" height="67.68pt" viewBox="0 0 499.52 67.68" xmlns="http://www.w3.org/2000/svg" version="1.1">

 <style type="text/css"><![CDATA[
  .math-text { fill: #24292f; }
  @media (prefers-color-scheme: dark) {
   .math-text { fill: #f0f6fc; }
  }
 ]]></style>
 <metadata>
  <rdf:RDF xmlns:dc="http://purl.org/dc/elements/1.1/" xmlns:cc="http://creativecommons.org/ns#" xmlns:rdf="http://www.w3.org/1999/02/22-rdf-syntax-ns#">
   <cc:Work>
    <dc:type rdf:resource="http://purl.org/dc/dcmitype/StillImage"/>
    <dc:date>2026-05-20T17:03:51.614362</dc:date>
    <dc:format>image/svg+xml</dc:format>
    <dc:creator>
     <cc:Agent>
      <dc:title>Matplotlib v3.10.9, https://matplotlib.org/</dc:title>
     </cc:Agent>
    </dc:creator>
   </cc:Work>
  </rdf:RDF>
 </metadata>
 <defs>
  <style type="text/css">*{stroke-linejoin: round; stroke-linecap: butt}</style>
 </defs>
 <g id="figure_1">
  <g id="patch_1">
   <path d="M 0 67.68 
L 499.52 67.68 
L 499.52 0 
L 0 0 
L 0 67.68 
z
" style="fill: none; opacity: 0"/>
  </g>
  <g id="axes_1">
   <g id="text_1">
    <g class="math-text" transform="translate(171.91 35.37) scale(0.18 -0.18)">
     <defs>
      <path id="STIXGeneral-Italic-7a" d="M 2432 2669 
L 582 467 
Q 877 403 1021 307 
Q 1165 211 1350 -64 
Q 1568 -384 1798 -384 
Q 1971 -384 1971 -288 
Q 1971 -256 1939 -192 
Q 1888 -90 1888 -13 
Q 1894 70 1958 137 
Q 2022 205 2099 205 
Q 2202 205 2262 141 
Q 2323 77 2323 -32 
Q 2323 -230 2156 -374 
Q 1990 -518 1728 -518 
Q 1459 -518 1005 -237 
Q 570 32 333 32 
Q 186 32 45 -83 
L -13 -26 
L 1971 2355 
L 1101 2355 
Q 845 2355 729 2281 
Q 614 2208 518 1971 
L 416 1997 
L 621 2739 
L 2432 2739 
L 2432 2669 
z
" transform="scale(0.015625)"/>
      <path id="STIXGeneral-Italic-72" d="M 1126 1427 
L 1229 1651 
Q 1446 2131 1830 2534 
Q 2106 2822 2336 2822 
Q 2470 2822 2553 2732 
Q 2637 2643 2637 2496 
Q 2637 2349 2557 2249 
Q 2477 2150 2336 2150 
Q 2214 2150 2112 2317 
Q 2061 2406 2010 2406 
Q 1837 2406 1485 1805 
Q 1267 1434 1136 1104 
Q 1005 774 774 0 
L 288 0 
L 806 1869 
Q 909 2246 909 2394 
Q 909 2560 666 2560 
Q 614 2560 467 2541 
L 467 2650 
L 1459 2822 
L 1478 2810 
L 1126 1427 
z
" transform="scale(0.015625)"/>
      <path id="STIXGeneral-Italic-6f" d="M 2995 1926 
Q 2995 1562 2812 1168 
Q 2630 774 2317 461 
Q 1786 -70 1114 -70 
Q 666 -70 419 163 
Q 173 397 173 819 
Q 173 1350 496 1856 
Q 819 2362 1325 2630 
Q 1683 2822 2093 2822 
Q 2490 2822 2742 2582 
Q 2995 2342 2995 1926 
z
M 2458 2086 
Q 2458 2374 2336 2531 
Q 2214 2688 2003 2688 
Q 1574 2688 1184 2106 
Q 710 1382 710 646 
Q 710 365 844 214 
Q 979 64 1210 64 
Q 1600 64 1984 595 
Q 2202 890 2330 1302 
Q 2458 1715 2458 2086 
z
" transform="scale(0.015625)"/>
      <path id="STIXGeneral-Italic-77" d="M 2579 2726 
L 2784 474 
Q 3418 1261 3629 1597 
Q 3840 1933 3840 2138 
Q 3840 2227 3699 2362 
Q 3565 2490 3565 2624 
Q 3565 2701 3638 2761 
Q 3712 2822 3814 2822 
Q 3955 2822 4051 2720 
Q 4147 2618 4147 2464 
Q 4147 1882 2790 230 
L 2733 160 
Q 2509 -115 2445 -115 
Q 2394 -115 2374 109 
L 2189 2093 
L 1619 1120 
Q 1472 877 1267 486 
Q 954 -115 858 -115 
Q 813 -115 800 -57 
Q 787 0 774 186 
L 749 768 
Q 698 1818 576 2317 
Q 531 2490 476 2538 
Q 422 2586 275 2586 
L 96 2586 
L 96 2669 
Q 602 2752 704 2778 
Q 736 2784 777 2797 
Q 819 2810 844 2816 
Q 870 2822 890 2822 
Q 941 2822 960 2790 
Q 979 2758 1011 2605 
Q 1171 1837 1216 806 
L 2445 2752 
Q 2483 2816 2528 2816 
Q 2579 2816 2579 2726 
z
" transform="scale(0.015625)"/>
      <path id="STIXGeneral-Regular-28" d="M 1946 -1030 
L 1869 -1133 
Q 1126 -710 716 32 
Q 307 774 307 1613 
Q 307 3386 1888 4326 
L 1946 4224 
Q 1293 3667 1075 3126 
Q 858 2586 858 1632 
Q 858 685 1082 96 
Q 1306 -493 1946 -1030 
z
" transform="scale(0.015625)"/>
      <path id="STIXGeneral-Italic-78" d="M 1555 2272 
L 1632 1907 
Q 1971 2426 2179 2624 
Q 2387 2822 2598 2822 
Q 2714 2822 2787 2755 
Q 2861 2688 2861 2585 
Q 2861 2483 2800 2419 
Q 2739 2355 2643 2355 
Q 2586 2355 2490 2409 
Q 2394 2464 2310 2464 
Q 2125 2464 1683 1690 
Q 1683 1606 1734 1402 
L 1939 544 
Q 2003 282 2131 282 
Q 2234 282 2432 538 
Q 2451 563 2476 598 
Q 2502 634 2521 662 
Q 2541 691 2566 717 
L 2662 659 
Q 2387 230 2227 80 
Q 2067 -70 1882 -70 
Q 1728 -70 1645 26 
Q 1562 122 1504 365 
L 1318 1126 
L 755 365 
Q 557 96 432 13 
Q 307 -70 147 -70 
Q 0 -70 -86 0 
Q -173 70 -173 198 
Q -173 294 -112 361 
Q -51 429 45 429 
Q 122 429 250 358 
Q 346 301 416 301 
Q 525 301 742 614 
L 1267 1357 
L 1088 2150 
Q 1024 2432 969 2509 
Q 915 2586 794 2586 
Q 717 2586 544 2541 
L 429 2509 
L 410 2611 
L 480 2637 
Q 992 2822 1229 2822 
Q 1350 2822 1420 2707 
Q 1491 2592 1555 2272 
z
" transform="scale(0.015625)"/>
      <path id="STIXGeneral-Italic-71" d="M 3098 2739 
L 2042 -966 
Q 2029 -1018 2029 -1037 
Q 2029 -1235 2394 -1235 
L 2490 -1235 
L 2490 -1338 
L 973 -1338 
L 973 -1235 
Q 1267 -1216 1382 -1139 
Q 1498 -1062 1555 -877 
L 2131 979 
Q 1754 378 1466 154 
Q 1178 -70 800 -70 
Q 499 -70 329 128 
Q 160 326 160 672 
Q 160 1165 445 1670 
Q 730 2176 1168 2499 
Q 1606 2822 2035 2822 
Q 2438 2822 2528 2426 
L 2630 2739 
L 3098 2739 
z
M 2432 2298 
Q 2432 2458 2323 2570 
Q 2214 2682 2054 2682 
Q 1792 2682 1459 2368 
Q 1133 2054 921 1606 
Q 710 1158 710 762 
Q 710 269 1050 269 
Q 1312 269 1574 499 
Q 1901 781 2166 1341 
Q 2432 1901 2432 2298 
z
" transform="scale(0.015625)"/>
      <path id="STIXGeneral-Regular-2c" d="M 531 -902 
L 467 -781 
Q 998 -422 998 -96 
Q 998 -13 909 -13 
Q 883 -13 822 -25 
Q 762 -38 723 -38 
Q 352 -38 352 288 
Q 352 454 457 553 
Q 563 653 736 653 
Q 954 653 1101 496 
Q 1248 339 1248 96 
Q 1248 -198 1053 -473 
Q 858 -749 531 -902 
z
" transform="scale(0.015625)"/>
      <path id="STIXGeneral-Italic-62" d="M 1043 1856 
L 1050 1856 
Q 1370 2387 1654 2604 
Q 1939 2822 2285 2822 
Q 2618 2822 2822 2617 
Q 3027 2413 3027 2054 
Q 3027 1562 2726 1062 
Q 2426 563 1942 246 
Q 1459 -70 979 -70 
Q 685 -70 416 32 
Q 147 134 147 269 
L 147 307 
L 1056 3654 
Q 1114 3885 1114 3955 
Q 1114 4058 1053 4080 
Q 992 4102 704 4115 
L 704 4224 
Q 1184 4282 1683 4371 
L 1715 4339 
L 1581 3814 
L 1043 1856 
z
M 2483 1958 
Q 2483 2509 2035 2509 
Q 1594 2509 1158 1773 
Q 954 1427 826 1008 
Q 698 589 698 294 
Q 698 77 992 77 
Q 1414 77 1779 454 
Q 2074 762 2278 1187 
Q 2483 1613 2483 1958 
z
" transform="scale(0.015625)"/>
      <path id="STIXGeneral-Regular-29" d="M 186 4224 
L 262 4326 
Q 992 3891 1408 3148 
Q 1824 2406 1824 1581 
Q 1824 -166 243 -1133 
L 186 -1030 
Q 845 -486 1059 54 
Q 1274 595 1274 1562 
Q 1274 2534 1059 3120 
Q 845 3706 186 4224 
z
" transform="scale(0.015625)"/>
      <path id="STIXGeneral-Regular-3d" d="M 4077 2048 
L 307 2048 
L 307 2470 
L 4077 2470 
L 4077 2048 
z
M 4077 768 
L 307 768 
L 307 1190 
L 4077 1190 
L 4077 768 
z
" transform="scale(0.015625)"/>
      <path id="STIXGeneral-Regular-2212" d="M 3974 1408 
L 410 1408 
L 410 1830 
L 3974 1830 
L 3974 1408 
z
" transform="scale(0.015625)"/>
      <path id="STIXGeneral-Italic-3bc" d="M 3002 749 
L 3091 691 
Q 2797 237 2614 83 
Q 2432 -70 2214 -70 
Q 2080 -70 1990 6 
Q 1901 83 1901 218 
Q 1901 416 1997 704 
L 2208 1370 
L 2202 1370 
Q 1766 595 1475 268 
Q 1184 -58 902 -58 
Q 723 -58 672 122 
Q 614 -109 547 -374 
Q 480 -640 451 -758 
Q 422 -877 384 -1005 
Q 346 -1133 314 -1197 
Q 282 -1261 243 -1312 
L -211 -1312 
Q -58 -1088 70 -595 
L 909 2739 
L 1389 2739 
L 909 832 
Q 883 717 883 659 
Q 883 352 1139 352 
Q 1395 352 1811 969 
Q 2227 1587 2323 1958 
L 2534 2739 
L 3027 2739 
L 2522 819 
Q 2400 333 2400 326 
Q 2400 230 2470 230 
Q 2547 230 2652 329 
Q 2758 429 3002 749 
z
" transform="scale(0.015625)"/>
      <path id="STIXGeneral-Regular-6d" d="M 4960 0 
L 3565 0 
L 3565 96 
Q 3834 122 3907 208 
Q 3981 294 3981 576 
L 3981 1894 
Q 3981 2278 3869 2444 
Q 3757 2611 3488 2611 
Q 3264 2611 3107 2521 
Q 2950 2432 2803 2221 
L 2803 608 
Q 2803 301 2896 201 
Q 2989 102 3264 96 
L 3264 0 
L 1830 0 
L 1830 96 
Q 2112 115 2189 188 
Q 2266 262 2266 550 
L 2266 1901 
Q 2266 2611 1850 2611 
Q 1670 2611 1468 2531 
Q 1267 2451 1171 2336 
Q 1088 2240 1088 2227 
L 1088 448 
Q 1088 243 1177 176 
Q 1267 109 1523 96 
L 1523 0 
L 102 0 
L 102 96 
Q 371 102 460 195 
Q 550 288 550 563 
L 550 2150 
Q 550 2387 499 2480 
Q 448 2573 326 2573 
Q 230 2573 122 2547 
L 122 2656 
Q 557 2778 1011 2944 
L 1062 2925 
L 1062 2451 
L 1075 2451 
Q 1363 2752 1584 2848 
Q 1805 2944 2054 2944 
Q 2560 2944 2733 2406 
Q 3232 2944 3776 2944 
Q 4518 2944 4518 1792 
L 4518 493 
Q 4518 282 4582 202 
Q 4646 122 4794 109 
L 4960 96 
L 4960 0 
z
" transform="scale(0.015625)"/>
      <path id="STIXGeneral-Regular-61" d="M 2829 422 
L 2829 243 
Q 2586 -64 2253 -64 
Q 1888 -64 1843 403 
L 1837 403 
Q 1427 -64 909 -64 
Q 608 -64 422 112 
Q 237 288 237 602 
Q 237 1050 685 1350 
Q 992 1555 1837 1869 
L 1837 2214 
Q 1837 2502 1699 2646 
Q 1562 2790 1338 2790 
Q 1146 2790 1018 2697 
Q 890 2605 890 2477 
Q 890 2419 909 2348 
Q 928 2278 928 2208 
Q 928 2112 841 2029 
Q 755 1946 634 1946 
Q 525 1946 441 2029 
Q 358 2112 358 2240 
Q 358 2547 685 2752 
Q 986 2944 1421 2944 
Q 1939 2944 2176 2656 
Q 2291 2522 2323 2384 
Q 2355 2246 2355 1946 
L 2355 723 
Q 2355 301 2554 301 
Q 2682 301 2829 422 
z
M 1837 813 
L 1837 1715 
Q 1248 1510 1018 1293 
Q 800 1094 800 800 
Q 800 557 921 432 
Q 1043 307 1242 307 
Q 1453 307 1613 410 
Q 1747 506 1792 589 
Q 1837 672 1837 813 
z
" transform="scale(0.015625)"/>
      <path id="STIXGeneral-Regular-78" d="M 3066 0 
L 1779 0 
L 1779 96 
Q 1939 109 1987 137 
Q 2035 166 2035 250 
Q 2035 307 1997 365 
L 1414 1261 
L 909 474 
Q 781 275 781 211 
Q 781 96 1037 96 
L 1037 0 
L 109 0 
L 109 96 
Q 269 109 355 169 
Q 442 230 576 422 
L 1306 1478 
L 704 2400 
Q 557 2624 454 2704 
Q 352 2784 211 2784 
L 154 2784 
L 154 2880 
L 1478 2880 
L 1478 2784 
Q 1203 2778 1203 2643 
Q 1203 2509 1498 2074 
Q 1581 1958 1587 1946 
Q 1619 1990 1779 2227 
Q 1811 2285 1856 2349 
Q 1901 2413 1923 2451 
Q 1946 2490 1971 2528 
Q 1997 2566 2006 2595 
Q 2016 2624 2016 2643 
Q 2016 2765 1760 2784 
L 1760 2880 
L 2771 2880 
L 2771 2784 
Q 2445 2771 2253 2502 
L 1722 1734 
L 2541 480 
Q 2790 96 3066 96 
L 3066 0 
z
" transform="scale(0.015625)"/>
      <path id="STIXGeneral-Italic-3c3" d="M 3398 2739 
L 3283 2266 
L 2195 2266 
Q 2291 2112 2457 1981 
Q 2624 1850 2717 1725 
Q 2810 1600 2810 1389 
Q 2810 851 2288 390 
Q 1766 -70 1107 -70 
Q 659 -70 416 170 
Q 173 410 173 832 
Q 173 1274 409 1706 
Q 646 2138 1113 2438 
Q 1581 2739 2157 2739 
L 3398 2739 
z
M 2272 1414 
Q 2272 1709 2166 1939 
Q 2061 2170 1901 2266 
Q 1530 2266 1120 1770 
Q 710 1274 710 640 
Q 710 358 844 211 
Q 979 64 1210 64 
Q 1638 64 1955 525 
Q 2272 986 2272 1414 
z
" transform="scale(0.015625)"/>
      <path id="STIXGeneral-Regular-31" d="M 2522 0 
L 755 0 
L 755 96 
Q 1107 115 1235 227 
Q 1363 339 1363 608 
L 1363 3482 
Q 1363 3795 1171 3795 
Q 1082 3795 883 3718 
L 710 3654 
L 710 3744 
L 1856 4326 
L 1914 4307 
L 1914 486 
Q 1914 275 2042 185 
Q 2170 96 2522 96 
L 2522 0 
z
" transform="scale(0.015625)"/>
      <path id="STIXGeneral-Regular-30" d="M 3046 2112 
Q 3046 1683 2963 1302 
Q 2880 922 2717 602 
Q 2554 282 2266 96 
Q 1978 -90 1600 -90 
Q 1210 -90 915 108 
Q 621 307 461 640 
Q 301 973 227 1350 
Q 154 1728 154 2150 
Q 154 2746 301 3222 
Q 448 3699 790 4012 
Q 1133 4326 1626 4326 
Q 2253 4326 2649 3712 
Q 3046 3098 3046 2112 
z
M 2432 2080 
Q 2432 3091 2217 3625 
Q 2003 4160 1587 4160 
Q 1190 4160 979 3622 
Q 768 3085 768 2106 
Q 768 1120 979 598 
Q 1190 77 1600 77 
Q 2003 77 2217 598 
Q 2432 1120 2432 2080 
z
" transform="scale(0.015625)"/>
      <path id="STIXGeneral-Regular-36" d="M 2854 4378 
L 2867 4275 
Q 2112 4154 1606 3664 
Q 1101 3174 973 2451 
Q 1344 2739 1786 2739 
Q 2349 2739 2672 2380 
Q 2995 2022 2995 1402 
Q 2995 774 2669 378 
Q 2291 -90 1651 -90 
Q 870 -90 518 557 
Q 218 1107 218 1786 
Q 218 2835 915 3552 
Q 1312 3962 1731 4131 
Q 2150 4301 2854 4378 
z
M 2419 1203 
Q 2419 2445 1555 2445 
Q 1235 2445 1024 2275 
Q 813 2106 813 1702 
Q 813 954 1046 522 
Q 1280 90 1722 90 
Q 2061 90 2240 394 
Q 2419 698 2419 1203 
z
" transform="scale(0.015625)"/>
     </defs>
     <use xlink:href="#STIXGeneral-Italic-7a" transform="translate(0 0.83375)"/>
     <use xlink:href="#STIXGeneral-Italic-72" transform="translate(38.899994 -12.394375) scale(0.7)"/>
     <use xlink:href="#STIXGeneral-Italic-6f" transform="translate(66.12999 -12.394375) scale(0.7)"/>
     <use xlink:href="#STIXGeneral-Italic-77" transform="translate(101.129979 -12.394375) scale(0.7)"/>
     <use xlink:href="#STIXGeneral-Regular-28" transform="translate(152.229352 0.83375)"/>
     <use xlink:href="#STIXGeneral-Italic-78" transform="translate(185.52934 0.83375)"/>
     <use xlink:href="#STIXGeneral-Italic-71" transform="translate(229.929333 -12.394375) scale(0.7)"/>
     <use xlink:href="#STIXGeneral-Regular-2c" transform="translate(264.929323 -12.394375) scale(0.7)"/>
     <use xlink:href="#STIXGeneral-Italic-62" transform="translate(292.53731 -12.394375) scale(0.7)"/>
     <use xlink:href="#STIXGeneral-Regular-29" transform="translate(331.946674 0.83375)"/>
     <use xlink:href="#STIXGeneral-Regular-3d" transform="translate(379.686658 0.83375)"/>
     <use xlink:href="#STIXGeneral-Italic-78" transform="translate(539.626639 58.134375) scale(0.7)"/>
     <use xlink:href="#STIXGeneral-Italic-71" transform="translate(570.706635 48.874688) scale(0.49)"/>
     <use xlink:href="#STIXGeneral-Regular-2c" transform="translate(595.206627 48.874688) scale(0.49)"/>
     <use xlink:href="#STIXGeneral-Italic-62" transform="translate(614.532218 48.874688) scale(0.49)"/>
     <use xlink:href="#STIXGeneral-Regular-2212" transform="translate(652.226771 58.134375) scale(0.7)"/>
     <use xlink:href="#STIXGeneral-Italic-3bc" transform="translate(710.284757 58.134375) scale(0.7)"/>
     <use xlink:href="#STIXGeneral-Italic-71" transform="translate(747.104751 48.874688) scale(0.49)"/>
     <use xlink:href="#STIXGeneral-Regular-6d" transform="translate(462.626639 -50.830937) scale(0.7)"/>
     <use xlink:href="#STIXGeneral-Regular-61" transform="translate(517.086631 -50.830937) scale(0.7)"/>
     <use xlink:href="#STIXGeneral-Regular-78" transform="translate(548.166626 -50.830937) scale(0.7)"/>
     <use xlink:href="#STIXGeneral-Regular-28" transform="translate(583.166616 -50.830937) scale(0.7)"/>
     <use xlink:href="#STIXGeneral-Italic-3c3" transform="translate(606.476607 -50.830937) scale(0.7)"/>
     <use xlink:href="#STIXGeneral-Italic-71" transform="translate(641.336599 -60.090625) scale(0.49)"/>
     <use xlink:href="#STIXGeneral-Regular-2c" transform="translate(668.923154 -50.830937) scale(0.7)"/>
     <use xlink:href="#STIXGeneral-Regular-31" transform="translate(696.53114 -50.830937) scale(0.7)"/>
     <use xlink:href="#STIXGeneral-Regular-30" transform="translate(731.53113 -50.830937) scale(0.7)"/>
     <use xlink:href="#STIXGeneral-Regular-2212" transform="translate(767.611416 -26.138437) scale(0.49)"/>
     <use xlink:href="#STIXGeneral-Regular-36" transform="translate(801.176408 -26.138437) scale(0.49)"/>
     <use xlink:href="#STIXGeneral-Regular-29" transform="translate(828.762963 -50.830937) scale(0.7)"/>
     <path d="M 462.626639 13.630625 
L 462.626639 19.880625 
L 852.072955 19.880625 
L 852.072955 13.630625 
L 462.626639 13.630625 
z
"/>
    </g>
   </g>
  </g>
 </g>
</svg>
