<?xml version="1.0" encoding="utf-8" standalone="no"?>
<!DOCTYPE svg PUBLIC "-//W3C//DTD SVG 1.1//EN"
  "http://www.w3.org/Graphics/SVG/1.1/DTD/svg11.dtd">
<svg xmlns:xlink="http://www.w3.org/1999/xlink" width="947.52pt" height="67.68pt" viewBox="0 0 947.52 67.68" xmlns="http://www.w3.org/2000/svg" version="1.1">

 <style type="text/css"><![CDATA[
  .math-text { fill: #24292f; }
  @media (prefers-color-scheme: dark) {
   .math-text { fill: #f0f6fc; }
  }
 ]]></style>
 <metadata>
  <rdf:RDF xmlns:dc="http://purl.org/dc/elements/1.1/" xmlns:cc="http://creativecommons.org/ns#" xmlns:rdf="http://www.w3.org/1999/02/22-rdf-syntax-ns#">
   <cc:Work>
    <dc:type rdf:resource="http://purl.org/dc/dcmitype/StillImage"/>
    <dc:date>2026-05-20T17:03:51.395342</dc:date>
    <dc:format>image/svg+xml</dc:format>
    <dc:creator>
     <cc:Agent>
      <dc:title>Matplotlib v3.10.9, https://matplotlib.org/</dc:title>
     </cc:Agent>
    </dc:creator>
   </cc:Work>
  </rdf:RDF>
 </metadata>
 <defs>
  <style type="text/css">*{stroke-linejoin: round; stroke-linecap: butt}</style>
 </defs>
 <g id="figure_1">
  <g id="patch_1">
   <path d="M 0 67.68 
L 947.52 67.68 
L 947.52 0 
L 0 0 
L 0 67.68 
z
" style="fill: none; opacity: 0"/>
  </g>
  <g id="axes_1">
   <g id="text_1">
    <g class="math-text" transform="translate(318.78 33.84) scale(0.18 -0.18)">
     <defs>
      <path id="STIXGeneral-Italic-52" d="M 845 4179 
L 2458 4179 
Q 3078 4179 3420 3936 
Q 3763 3693 3763 3277 
Q 3763 2778 3341 2458 
Q 3091 2266 2502 2131 
L 3072 627 
Q 3181 333 3299 217 
Q 3418 102 3629 102 
L 3629 0 
L 2688 0 
L 1901 2074 
L 1478 2106 
L 1126 806 
Q 1043 512 1043 403 
Q 1043 256 1126 192 
Q 1210 128 1472 102 
L 1472 0 
L -83 0 
L -83 102 
Q 173 134 278 243 
Q 384 352 461 646 
L 1222 3405 
Q 1299 3699 1299 3808 
Q 1299 3923 1210 3987 
Q 1133 4038 845 4077 
L 845 4179 
z
M 1958 3795 
L 1555 2342 
Q 1754 2310 1882 2310 
Q 2451 2310 2771 2566 
Q 3091 2822 3091 3270 
Q 3091 3603 2892 3795 
Q 2694 3987 2323 3987 
Q 2010 3987 1958 3795 
z
" transform="scale(0.015625)"/>
      <path id="STIXGeneral-Italic-6b" d="M 2950 2739 
L 2950 2637 
Q 2720 2624 2464 2448 
Q 2208 2272 1510 1651 
L 1747 1088 
Q 2099 262 2266 262 
Q 2400 262 2554 531 
Q 2586 582 2650 698 
L 2746 627 
Q 2522 224 2374 77 
Q 2227 -70 2035 -70 
Q 1894 -70 1782 42 
Q 1670 154 1517 454 
Q 1325 826 1133 1357 
L 877 1152 
L 570 0 
L 90 0 
L 992 3379 
Q 1082 3699 1107 3942 
Q 1088 4096 781 4096 
L 666 4096 
L 666 4198 
Q 1146 4256 1670 4371 
L 1709 4333 
L 941 1414 
L 1216 1626 
Q 2131 2330 2131 2522 
Q 2131 2637 1894 2637 
L 1805 2637 
L 1805 2739 
L 2950 2739 
z
" transform="scale(0.015625)"/>
      <path id="STIXGeneral-Regular-28" d="M 1946 -1030 
L 1869 -1133 
Q 1126 -710 716 32 
Q 307 774 307 1613 
Q 307 3386 1888 4326 
L 1946 4224 
Q 1293 3667 1075 3126 
Q 858 2586 858 1632 
Q 858 685 1082 96 
Q 1306 -493 1946 -1030 
z
" transform="scale(0.015625)"/>
      <path id="STIXGeneral-Italic-73" d="M 2342 2829 
L 2214 1933 
L 2112 1933 
Q 2022 2675 1542 2675 
Q 1370 2675 1267 2579 
Q 1165 2483 1165 2310 
Q 1165 2067 1510 1658 
Q 1946 1152 1946 787 
Q 1946 397 1686 163 
Q 1427 -70 1024 -70 
Q 838 -70 672 -6 
Q 538 51 390 51 
Q 262 51 205 -83 
L 102 -83 
L 230 934 
L 333 934 
Q 461 64 973 64 
Q 1203 64 1331 192 
Q 1459 320 1459 557 
Q 1459 845 1101 1293 
Q 698 1798 698 2131 
Q 698 2451 909 2636 
Q 1120 2822 1472 2822 
Q 1600 2822 1830 2758 
Q 1971 2714 2061 2714 
Q 2189 2714 2253 2829 
L 2342 2829 
z
" transform="scale(0.015625)"/>
      <path id="STIXGeneral-Regular-29" d="M 186 4224 
L 262 4326 
Q 992 3891 1408 3148 
Q 1824 2406 1824 1581 
Q 1824 -166 243 -1133 
L 186 -1030 
Q 845 -486 1059 54 
Q 1274 595 1274 1562 
Q 1274 2534 1059 3120 
Q 845 3706 186 4224 
z
" transform="scale(0.015625)"/>
      <path id="STIXGeneral-Regular-3d" d="M 4077 2048 
L 307 2048 
L 307 2470 
L 4077 2470 
L 4077 2048 
z
M 4077 768 
L 307 768 
L 307 1190 
L 4077 1190 
L 4077 768 
z
" transform="scale(0.015625)"/>
      <path id="STIXGeneral-Regular-31" d="M 2522 0 
L 755 0 
L 755 96 
Q 1107 115 1235 227 
Q 1363 339 1363 608 
L 1363 3482 
Q 1363 3795 1171 3795 
Q 1082 3795 883 3718 
L 710 3654 
L 710 3744 
L 1856 4326 
L 1914 4307 
L 1914 486 
Q 1914 275 2042 185 
Q 2170 96 2522 96 
L 2522 0 
z
" transform="scale(0.015625)"/>
      <path id="STIXGeneral-Regular-7c" d="M 851 -90 
L 429 -90 
L 429 4326 
L 851 4326 
L 851 -90 
z
" transform="scale(0.015625)"/>
      <path id="STIXGeneral-Italic-4c" d="M 3578 1152 
L 3206 0 
L -51 0 
L -51 102 
Q 218 128 301 211 
Q 384 294 474 602 
L 1254 3405 
Q 1325 3642 1325 3802 
Q 1325 3942 1225 4000 
Q 1126 4058 832 4077 
L 832 4179 
L 2579 4179 
L 2579 4077 
Q 2285 4058 2147 3955 
Q 2010 3853 1933 3584 
L 1165 838 
Q 1101 595 1101 493 
Q 1101 346 1241 288 
Q 1382 230 1773 230 
Q 2266 230 2480 275 
Q 2694 320 2925 474 
Q 3187 646 3450 1190 
L 3578 1152 
z
" transform="scale(0.015625)"/>
      <path id="STIXGeneral-Italic-51" d="M 442 -1082 
L 378 -979 
Q 749 -717 912 -589 
Q 1075 -461 1510 -77 
Q 966 32 675 425 
Q 384 819 384 1440 
Q 384 2035 678 2624 
Q 973 3213 1491 3661 
Q 2202 4262 3034 4262 
Q 3680 4262 4077 3833 
Q 4474 3405 4474 2746 
Q 4474 1997 4019 1277 
Q 3565 557 2835 173 
Q 2400 -64 1786 -102 
L 1440 -467 
L 1600 -467 
Q 1824 -467 2387 -595 
Q 2938 -730 3098 -730 
Q 3443 -730 3673 -624 
Q 3904 -518 4173 -237 
L 4275 -307 
Q 4122 -525 3942 -685 
Q 3411 -1165 2720 -1165 
Q 2298 -1165 1773 -998 
Q 1421 -883 1178 -883 
Q 800 -883 442 -1082 
z
M 3802 3072 
Q 3802 3526 3581 3788 
Q 3360 4051 2976 4051 
Q 2272 4051 1734 3251 
Q 1446 2822 1251 2230 
Q 1056 1638 1056 1171 
Q 1056 691 1273 400 
Q 1491 109 1850 109 
Q 2579 109 3117 902 
Q 3411 1350 3606 1964 
Q 3802 2579 3802 3072 
z
" transform="scale(0.015625)"/>
      <path id="STIXGeneral-Regular-2211" d="M 5478 256 
L 5139 -1658 
L 371 -1658 
L 2880 1606 
L 531 4883 
L 5312 4883 
L 5312 3277 
L 5120 3277 
Q 5018 3949 4765 4205 
Q 4512 4461 3891 4461 
L 1843 4461 
L 3699 1958 
L 1549 -819 
L 4198 -819 
Q 4698 -819 4934 -550 
Q 5171 -282 5286 256 
L 5478 256 
z
" transform="scale(0.015625)"/>
      <path id="STIXGeneral-Italic-6c" d="M 1786 4339 
L 806 595 
Q 755 410 755 320 
Q 755 205 864 205 
Q 1037 205 1293 570 
L 1453 794 
L 1542 730 
Q 1254 275 1046 102 
Q 838 -70 576 -70 
Q 262 -70 262 288 
Q 262 397 288 480 
L 1165 3834 
Q 1184 3898 1184 3955 
Q 1184 4096 870 4096 
L 755 4096 
L 755 4198 
Q 1203 4250 1747 4371 
L 1786 4339 
z
" transform="scale(0.015625)"/>
      <path id="STIXGeneral-Regular-2208" d="M 4000 -173 
L 2138 -173 
Q 1382 -173 883 355 
Q 384 883 384 1612 
Q 384 2342 877 2870 
Q 1370 3398 2118 3398 
L 4000 3398 
L 4000 2976 
L 2144 2976 
Q 1664 2976 1286 2633 
Q 909 2291 826 1824 
L 4000 1824 
L 4000 1402 
L 819 1402 
Q 902 934 1280 592 
Q 1658 250 2138 250 
L 4000 250 
L 4000 -173 
z
" transform="scale(0.015625)"/>
      <path id="STIXGeneral-Italic-71" d="M 3098 2739 
L 2042 -966 
Q 2029 -1018 2029 -1037 
Q 2029 -1235 2394 -1235 
L 2490 -1235 
L 2490 -1338 
L 973 -1338 
L 973 -1235 
Q 1267 -1216 1382 -1139 
Q 1498 -1062 1555 -877 
L 2131 979 
Q 1754 378 1466 154 
Q 1178 -70 800 -70 
Q 499 -70 329 128 
Q 160 326 160 672 
Q 160 1165 445 1670 
Q 730 2176 1168 2499 
Q 1606 2822 2035 2822 
Q 2438 2822 2528 2426 
L 2630 2739 
L 3098 2739 
z
M 2432 2298 
Q 2432 2458 2323 2570 
Q 2214 2682 2054 2682 
Q 1792 2682 1459 2368 
Q 1133 2054 921 1606 
Q 710 1158 710 762 
Q 710 269 1050 269 
Q 1312 269 1574 499 
Q 1901 781 2166 1341 
Q 2432 1901 2432 2298 
z
" transform="scale(0.015625)"/>
      <path id="STIXGeneral-Regular-54" d="M 3795 3149 
L 3642 3149 
Q 3539 3674 3353 3821 
Q 3168 3968 2656 3968 
L 2278 3968 
L 2278 710 
Q 2278 346 2387 243 
Q 2496 141 2893 122 
L 2893 0 
L 1024 0 
L 1024 122 
Q 1427 147 1526 256 
Q 1626 365 1626 787 
L 1626 3968 
L 1242 3968 
Q 723 3968 540 3817 
Q 358 3667 262 3149 
L 109 3149 
L 154 4237 
L 3750 4237 
L 3795 3149 
z
" transform="scale(0.015625)"/>
      <path id="STIXGeneral-Regular-6f" d="M 3008 1478 
Q 3008 806 2608 371 
Q 2208 -64 1568 -64 
Q 979 -64 582 368 
Q 186 800 186 1459 
Q 186 2125 582 2534 
Q 979 2944 1626 2944 
Q 2221 2944 2614 2537 
Q 3008 2131 3008 1478 
z
M 2432 1306 
Q 2432 2035 2112 2445 
Q 1856 2765 1504 2765 
Q 1171 2765 966 2493 
Q 762 2221 762 1747 
Q 762 928 1101 435 
Q 1318 115 1677 115 
Q 2029 115 2230 432 
Q 2432 749 2432 1306 
z
" transform="scale(0.015625)"/>
      <path id="STIXGeneral-Regular-70" d="M 1018 2931 
L 1018 2438 
Q 1421 2944 1939 2944 
Q 2406 2944 2707 2560 
Q 3008 2176 3008 1581 
Q 3008 883 2621 409 
Q 2234 -64 1664 -64 
Q 1466 -64 1328 -6 
Q 1190 51 1018 211 
L 1018 -794 
Q 1018 -1094 1120 -1180 
Q 1222 -1267 1581 -1274 
L 1581 -1389 
L 32 -1389 
L 32 -1280 
Q 314 -1254 397 -1171 
Q 480 -1088 480 -838 
L 480 2157 
Q 480 2381 429 2451 
Q 378 2522 218 2522 
Q 115 2522 58 2515 
L 58 2618 
Q 506 2752 979 2944 
L 1018 2931 
z
M 1018 2138 
L 1018 563 
Q 1018 422 1238 281 
Q 1459 141 1683 141 
Q 2029 141 2243 467 
Q 2458 794 2458 1325 
Q 2458 1888 2243 2224 
Q 2029 2560 1670 2560 
Q 1446 2560 1232 2419 
Q 1018 2278 1018 2138 
z
" transform="scale(0.015625)"/>
      <path id="STIXGeneral-Regular-4b" d="M 4627 0 
L 2688 0 
L 2688 122 
L 2861 128 
Q 3130 134 3130 282 
Q 3130 397 2922 643 
Q 2714 890 2253 1370 
L 1613 2029 
L 1446 1894 
L 1446 710 
Q 1446 352 1548 253 
Q 1651 154 2016 122 
L 2016 0 
L 211 0 
L 211 122 
Q 589 141 691 262 
Q 794 384 794 800 
L 794 3514 
Q 794 3872 691 3981 
Q 589 4090 218 4115 
L 218 4237 
L 2022 4237 
L 2022 4115 
Q 1632 4090 1539 3987 
Q 1446 3885 1446 3507 
L 1446 2227 
L 2586 3277 
Q 2861 3533 2973 3667 
Q 3085 3802 3085 3910 
Q 3085 4013 3030 4057 
Q 2976 4102 2822 4109 
L 2662 4115 
L 2662 4237 
L 4320 4237 
L 4320 4115 
Q 3994 4090 3824 4003 
Q 3654 3917 3322 3597 
L 2131 2458 
L 3629 819 
Q 4026 384 4214 253 
Q 4403 122 4627 122 
L 4627 0 
z
" transform="scale(0.015625)"/>
      <path id="STIXGeneral-Regular-2c" d="M 531 -902 
L 467 -781 
Q 998 -422 998 -96 
Q 998 -13 909 -13 
Q 883 -13 822 -25 
Q 762 -38 723 -38 
Q 352 -38 352 288 
Q 352 454 457 553 
Q 563 653 736 653 
Q 954 653 1101 496 
Q 1248 339 1248 96 
Q 1248 -198 1053 -473 
Q 858 -749 531 -902 
z
" transform="scale(0.015625)"/>
      <path id="STIXGeneral-Regular-3a" d="M 1123 2832 
Q 1229 2726 1229 2579 
Q 1229 2432 1126 2329 
Q 1024 2227 877 2227 
Q 730 2227 624 2332 
Q 518 2438 518 2579 
Q 518 2733 620 2835 
Q 723 2938 877 2938 
Q 1018 2938 1123 2832 
z
M 1229 282 
Q 1229 141 1126 35 
Q 1024 -70 877 -70 
Q 730 -70 624 35 
Q 518 141 518 282 
Q 518 435 620 537 
Q 723 640 877 640 
Q 1018 640 1123 534 
Q 1229 429 1229 282 
z
" transform="scale(0.015625)"/>
      <path id="STIXGeneral-Regular-2229" d="M 3661 -198 
L 3238 -198 
L 3238 1696 
Q 3238 2240 2867 2624 
Q 2496 3008 1984 3008 
Q 1459 3008 1094 2624 
Q 730 2240 730 1690 
L 730 -198 
L 307 -198 
L 307 1715 
Q 307 2470 784 2950 
Q 1261 3430 1984 3430 
Q 2701 3430 3181 2944 
Q 3661 2458 3661 1696 
L 3661 -198 
z
" transform="scale(0.015625)"/>
      <path id="STIXGeneral-Italic-4f" d="M 4474 2675 
Q 4474 1990 4106 1363 
Q 3738 736 3149 339 
Q 2477 -115 1779 -115 
Q 1146 -115 765 281 
Q 384 678 384 1382 
Q 384 1965 697 2582 
Q 1011 3200 1517 3642 
Q 2234 4262 3034 4262 
Q 3718 4269 4096 3840 
Q 4474 3411 4474 2675 
z
M 3802 3078 
Q 3802 3533 3581 3792 
Q 3360 4051 2976 4051 
Q 2342 4051 1786 3302 
Q 1446 2842 1251 2259 
Q 1056 1677 1056 1178 
Q 1056 653 1270 374 
Q 1485 96 1888 96 
Q 2477 96 2976 704 
Q 3354 1178 3578 1862 
Q 3802 2547 3802 3078 
z
" transform="scale(0.015625)"/>
     </defs>
     <use xlink:href="#STIXGeneral-Italic-52" transform="translate(0 0.891563)"/>
     <use xlink:href="#STIXGeneral-Italic-6b" transform="translate(61.099991 -12.336562) scale(0.7)"/>
     <use xlink:href="#STIXGeneral-Regular-28" transform="translate(96.589362 0.891563)"/>
     <use xlink:href="#STIXGeneral-Italic-73" transform="translate(129.889349 0.891563)"/>
     <use xlink:href="#STIXGeneral-Regular-29" transform="translate(168.789343 0.891563)"/>
     <use xlink:href="#STIXGeneral-Regular-3d" transform="translate(216.529327 0.891563)"/>
     <use xlink:href="#STIXGeneral-Regular-31" transform="translate(367.469308 38.688438) scale(0.7)"/>
     <use xlink:href="#STIXGeneral-Regular-7c" transform="translate(299.469308 -39.877187) scale(0.7)"/>
     <use xlink:href="#STIXGeneral-Italic-4c" transform="translate(313.469298 -39.877187) scale(0.7)"/>
     <use xlink:href="#STIXGeneral-Regular-7c" transform="translate(352.389291 -39.877187) scale(0.7)"/>
     <use xlink:href="#STIXGeneral-Regular-7c" transform="translate(366.389281 -39.877187) scale(0.7)"/>
     <use xlink:href="#STIXGeneral-Italic-51" transform="translate(380.38927 -39.877187) scale(0.7)"/>
     <use xlink:href="#STIXGeneral-Italic-6b" transform="translate(430.929257 -49.136875) scale(0.49)"/>
     <use xlink:href="#STIXGeneral-Regular-7c" transform="translate(455.771817 -39.877187) scale(0.7)"/>
     <use xlink:href="#STIXGeneral-Regular-2211" transform="translate(505.271806 0.891563)"/>
     <use xlink:href="#STIXGeneral-Italic-6c" transform="translate(482.271806 -91.5725) scale(0.7)"/>
     <use xlink:href="#STIXGeneral-Regular-2208" transform="translate(511.839795 -91.5725) scale(0.7)"/>
     <use xlink:href="#STIXGeneral-Italic-4c" transform="translate(569.897782 -91.5725) scale(0.7)"/>
     <use xlink:href="#STIXGeneral-Regular-2211" transform="translate(657.817775 0.891563)"/>
     <use xlink:href="#STIXGeneral-Italic-71" transform="translate(608.817775 -90.380313) scale(0.7)"/>
     <use xlink:href="#STIXGeneral-Regular-2208" transform="translate(653.925762 -90.380313) scale(0.7)"/>
     <use xlink:href="#STIXGeneral-Italic-51" transform="translate(711.983749 -90.380313) scale(0.7)"/>
     <use xlink:href="#STIXGeneral-Italic-6b" transform="translate(762.523736 -99.64) scale(0.49)"/>
     <use xlink:href="#STIXGeneral-Regular-7c" transform="translate(787.366295 58.192188) scale(0.7)"/>
     <use xlink:href="#STIXGeneral-Regular-54" transform="translate(801.366285 58.192188) scale(0.7)"/>
     <use xlink:href="#STIXGeneral-Regular-6f" transform="translate(844.136278 58.192188) scale(0.7)"/>
     <use xlink:href="#STIXGeneral-Regular-70" transform="translate(879.136268 58.192188) scale(0.7)"/>
     <use xlink:href="#STIXGeneral-Regular-4b" transform="translate(914.136257 58.192188) scale(0.7)"/>
     <use xlink:href="#STIXGeneral-Regular-28" transform="translate(964.676244 58.192188) scale(0.7)"/>
     <use xlink:href="#STIXGeneral-Italic-73" transform="translate(987.986236 58.192188) scale(0.7)"/>
     <use xlink:href="#STIXGeneral-Italic-6c" transform="translate(1015.216231 48.9325) scale(0.49)"/>
     <use xlink:href="#STIXGeneral-Regular-2c" transform="translate(1028.838225 48.9325) scale(0.49)"/>
     <use xlink:href="#STIXGeneral-Italic-71" transform="translate(1048.163816 48.9325) scale(0.49)"/>
     <use xlink:href="#STIXGeneral-Regular-2c" transform="translate(1072.663809 48.9325) scale(0.49)"/>
     <use xlink:href="#STIXGeneral-Regular-3a" transform="translate(1099.064998 48.9325) scale(0.49)"/>
     <use xlink:href="#STIXGeneral-Regular-2c" transform="translate(1122.849152 58.192188) scale(0.7)"/>
     <use xlink:href="#STIXGeneral-Italic-6b" transform="translate(1150.457139 58.192188) scale(0.7)"/>
     <use xlink:href="#STIXGeneral-Regular-29" transform="translate(1181.537135 58.192188) scale(0.7)"/>
     <use xlink:href="#STIXGeneral-Regular-2229" transform="translate(1214.955124 58.192188) scale(0.7)"/>
     <use xlink:href="#STIXGeneral-Regular-54" transform="translate(1268.46311 58.192188) scale(0.7)"/>
     <use xlink:href="#STIXGeneral-Regular-6f" transform="translate(1311.233104 58.192188) scale(0.7)"/>
     <use xlink:href="#STIXGeneral-Regular-70" transform="translate(1346.233093 58.192188) scale(0.7)"/>
     <use xlink:href="#STIXGeneral-Regular-4b" transform="translate(1381.233083 58.192188) scale(0.7)"/>
     <use xlink:href="#STIXGeneral-Regular-28" transform="translate(1431.77307 58.192188) scale(0.7)"/>
     <use xlink:href="#STIXGeneral-Italic-4f" transform="translate(1455.083061 58.192188) scale(0.7)"/>
     <use xlink:href="#STIXGeneral-Italic-6c" transform="translate(1505.623048 48.9325) scale(0.49)"/>
     <use xlink:href="#STIXGeneral-Regular-2c" transform="translate(1519.245043 48.9325) scale(0.49)"/>
     <use xlink:href="#STIXGeneral-Italic-71" transform="translate(1538.570633 48.9325) scale(0.49)"/>
     <use xlink:href="#STIXGeneral-Regular-2c" transform="translate(1563.070626 48.9325) scale(0.49)"/>
     <use xlink:href="#STIXGeneral-Regular-3a" transform="translate(1589.471815 48.9325) scale(0.49)"/>
     <use xlink:href="#STIXGeneral-Regular-2c" transform="translate(1613.255969 58.192188) scale(0.7)"/>
     <use xlink:href="#STIXGeneral-Italic-6b" transform="translate(1640.863956 58.192188) scale(0.7)"/>
     <use xlink:href="#STIXGeneral-Regular-29" transform="translate(1671.943952 58.192188) scale(0.7)"/>
     <use xlink:href="#STIXGeneral-Regular-7c" transform="translate(1695.253943 58.192188) scale(0.7)"/>
     <use xlink:href="#STIXGeneral-Italic-6b" transform="translate(1232.366295 -40.369375) scale(0.7)"/>
     <path d="M 299.469308 13.688438 
L 299.469308 19.938438 
L 469.771806 19.938438 
L 469.771806 13.688438 
L 299.469308 13.688438 
z
"/>
     <path d="M 787.366295 13.688438 
L 787.366295 19.938438 
L 1709.253933 19.938438 
L 1709.253933 13.688438 
L 787.366295 13.688438 
z
"/>
    </g>
   </g>
  </g>
 </g>
</svg>
